<svg xmlns="http://www.w3.org/2000/svg" xmlns:xlink="http://www.w3.org/1999/xlink" width="1920" zoomAndPan="magnify" viewBox="0 0 1440 809.999993" height="1080" preserveAspectRatio="xMidYMid meet" version="1.0"><defs><clipPath id="afaa2b451b"><path d="M 106.039062 332.839844 L 328.035156 332.839844 L 328.035156 651 L 106.039062 651 Z M 106.039062 332.839844 " clip-rule="nonzero"/></clipPath><clipPath id="a7065a9fae"><path d="M 527.714844 243 L 912.464844 243 L 912.464844 567 L 527.714844 567 Z M 527.714844 243 " clip-rule="nonzero"/></clipPath></defs><rect x="-144" width="1728" fill="#ffffff" y="-80.999999" height="971.999992" fill-opacity="1"/><rect x="-144" width="1728" fill="#9370db" y="-80.999999" height="971.999992" fill-opacity="1"/><g clip-path="url(#afaa2b451b)"><path fill="#9370db" d="M 217.210938 332.949219 C 278.605469 332.949219 328.382812 382.722656 328.382812 444.121094 C 328.382812 465.484375 322.351562 485.433594 311.90625 502.375 C 299.378906 523.128906 286.847656 543.886719 274.320312 564.640625 C 259.058594 589.445312 246.714844 609.515625 231.457031 634.320312 C 218.003906 656.191406 217.09375 656.726562 203.570312 634.746094 C 188.390625 610.066406 175.628906 589.320312 160.445312 564.640625 C 147.945312 544.117188 135.449219 523.597656 122.949219 503.078125 C 112.238281 485.984375 106.039062 465.777344 106.039062 444.121094 C 106.039062 382.722656 155.8125 332.949219 217.210938 332.949219 Z M 217.210938 388.6875 C 244.734375 388.6875 267.046875 411 267.046875 438.523438 C 267.046875 466.050781 244.734375 488.363281 217.210938 488.363281 C 189.683594 488.363281 167.371094 466.050781 167.371094 438.523438 C 167.371094 411 189.683594 388.6875 217.210938 388.6875 Z M 217.210938 388.6875 " fill-opacity="1" fill-rule="evenodd"/></g><g clip-path="url(#a7065a9fae)"><path fill="#000000" d="M 912.367188 328.558594 L 912.367188 276.007812 C 912.367188 257.550781 897.921875 243 880.214844 243 L 559.964844 243 C 542.257812 243 527.8125 257.550781 527.8125 276.007812 L 527.8125 533.992188 C 527.8125 552.34375 542.257812 567 559.964844 567 L 880.214844 567 C 897.921875 567 912.367188 552.449219 912.367188 533.992188 L 912.367188 328.558594 C 912.367188 328.777344 912.367188 328.558594 912.367188 328.558594 Z M 559.964844 255.921875 L 880.214844 255.921875 C 890.75 255.921875 899.332031 264.605469 899.332031 275.898438 L 899.332031 321.9375 L 540.847656 321.9375 L 540.847656 276.007812 C 540.847656 264.714844 549.429688 255.921875 559.964844 255.921875 Z M 880.214844 553.96875 L 559.964844 553.96875 C 549.429688 553.96875 540.847656 545.285156 540.847656 533.992188 L 540.847656 334.964844 L 899.332031 334.964844 L 899.332031 533.992188 C 899.332031 545.175781 890.75 553.96875 880.214844 553.96875 Z M 880.214844 553.96875 " fill-opacity="1" fill-rule="nonzero"/></g><path fill="#000000" d="M 628.296875 313.792969 C 641.332031 313.792969 651.871094 302.828125 651.871094 289.472656 C 651.871094 276.117188 641.332031 265.148438 628.296875 265.148438 C 615.261719 265.148438 604.722656 276.007812 604.722656 289.363281 C 604.722656 302.71875 615.261719 313.792969 628.296875 313.792969 Z M 628.296875 277.960938 C 634.164062 277.960938 638.832031 283.066406 638.832031 289.253906 C 638.832031 295.445312 634.164062 300.546875 628.296875 300.546875 C 622.429688 300.546875 617.757812 295.445312 617.757812 289.253906 C 617.757812 283.175781 622.429688 277.960938 628.296875 277.960938 Z M 628.296875 277.960938 " fill-opacity="1" fill-rule="nonzero"/><path fill="#000000" d="M 683.808594 313.792969 C 696.84375 313.792969 707.378906 302.828125 707.378906 289.472656 C 707.378906 276.117188 696.84375 265.148438 683.808594 265.148438 C 670.769531 265.148438 660.234375 276.117188 660.234375 289.472656 C 660.234375 302.828125 670.769531 313.792969 683.808594 313.792969 Z M 683.808594 277.960938 C 689.671875 277.960938 694.34375 283.066406 694.34375 289.253906 C 694.34375 295.445312 689.671875 300.546875 683.808594 300.546875 C 677.941406 300.546875 673.269531 295.445312 673.269531 289.253906 C 673.269531 283.175781 677.941406 277.960938 683.808594 277.960938 Z M 683.808594 277.960938 " fill-opacity="1" fill-rule="nonzero"/><path fill="#000000" d="M 572.785156 313.792969 C 585.820312 313.792969 596.359375 302.828125 596.359375 289.472656 C 596.359375 276.117188 585.820312 265.148438 572.785156 265.148438 C 559.75 265.148438 549.210938 276.007812 549.210938 289.363281 C 549.210938 302.71875 559.75 313.792969 572.785156 313.792969 Z M 572.785156 277.960938 C 578.652344 277.960938 583.324219 283.066406 583.324219 289.253906 C 583.324219 295.445312 578.652344 300.546875 572.785156 300.546875 C 566.917969 300.546875 562.246094 295.445312 562.246094 289.253906 C 562.246094 283.175781 566.917969 277.960938 572.785156 277.960938 Z M 572.785156 277.960938 " fill-opacity="1" fill-rule="nonzero"/><path fill="#000000" d="M 725.847656 355.164062 C 724.652344 353.097656 722.480469 351.6875 720.089844 351.6875 C 717.699219 351.6875 715.417969 352.992188 714.332031 355.164062 L 668.488281 441.917969 C 667.730469 443.328125 667.621094 445.066406 667.945312 446.585938 L 679.789062 489.582031 L 678.703125 489.582031 C 675.007812 489.582031 672.074219 492.625 671.964844 496.207031 L 671.964844 533.125 C 671.964844 536.816406 675.117188 539.421875 678.703125 539.421875 L 761.371094 539.421875 C 765.0625 539.421875 768.105469 536.816406 768.105469 533.125 L 768.105469 496.207031 C 767.996094 492.515625 764.957031 489.582031 761.371094 489.582031 L 761.261719 489.582031 L 772.34375 446.476562 C 772.777344 444.957031 772.558594 443.21875 771.800781 441.808594 Z M 724.542969 434.097656 C 724.542969 436.597656 722.589844 438.550781 720.089844 438.550781 C 717.589844 438.550781 715.636719 436.597656 715.636719 434.097656 C 715.636719 431.601562 717.589844 429.648438 720.089844 429.648438 C 722.589844 429.863281 724.542969 431.820312 724.542969 434.097656 Z M 755.179688 526.28125 L 685.003906 526.28125 L 685.003906 502.722656 L 755.179688 502.722656 Z M 693.257812 489.691406 L 681.089844 445.824219 L 713.570312 384.585938 L 713.570312 418.246094 C 705.859375 421.394531 701.40625 429.539062 703.035156 437.683594 C 704.554688 445.933594 711.726562 451.796875 720.089844 451.796875 C 728.453125 451.796875 735.625 445.933594 737.144531 437.683594 C 738.667969 429.429688 734.320312 421.394531 726.609375 418.246094 L 726.609375 384.585938 L 759.089844 445.824219 L 747.792969 489.691406 Z M 693.257812 489.691406 " fill-opacity="1" fill-rule="nonzero"/></svg>