<svg xmlns="http://www.w3.org/2000/svg" xmlns:xlink="http://www.w3.org/1999/xlink" width="1920" zoomAndPan="magnify" viewBox="0 0 1440 809.999993" height="1080" preserveAspectRatio="xMidYMid meet" version="1.0"><defs><clipPath id="17cdfe2714"><path d="M 106.039062 585.113281 L 155.535156 585.113281 L 155.535156 656 L 106.039062 656 Z M 106.039062 585.113281 " clip-rule="nonzero"/></clipPath><clipPath id="170cfdef59"><path d="M 844 316 L 860.542969 316 L 860.542969 327 L 844 327 Z M 844 316 " clip-rule="nonzero"/></clipPath><clipPath id="f50027403e"><path d="M 536.542969 374 L 621 374 L 621 567 L 536.542969 567 Z M 536.542969 374 " clip-rule="nonzero"/></clipPath></defs><rect x="-144" width="1728" fill="#ffffff" y="-80.999999" height="971.999992" fill-opacity="1"/><rect x="-144" width="1728" fill="#9370db" y="-80.999999" height="971.999992" fill-opacity="1"/><g clip-path="url(#17cdfe2714)"><path fill="#9370db" d="M 130.648438 585.132812 C 144.238281 585.132812 155.257812 596.152344 155.257812 609.742188 C 155.257812 614.472656 153.921875 618.890625 151.609375 622.640625 C 148.835938 627.234375 146.0625 631.828125 143.289062 636.421875 C 139.910156 641.914062 137.179688 646.355469 133.800781 651.847656 C 130.824219 656.6875 130.621094 656.808594 127.628906 651.941406 C 124.265625 646.476562 121.441406 641.886719 118.082031 636.421875 C 115.3125 631.878906 112.546875 627.335938 109.78125 622.792969 C 107.410156 619.011719 106.039062 614.539062 106.039062 609.742188 C 106.039062 596.152344 117.054688 585.132812 130.648438 585.132812 Z M 130.648438 597.472656 C 136.738281 597.472656 141.679688 602.410156 141.679688 608.503906 C 141.679688 614.597656 136.742188 619.539062 130.648438 619.539062 C 124.554688 619.539062 119.613281 614.597656 119.613281 608.503906 C 119.613281 602.410156 124.554688 597.472656 130.648438 597.472656 Z M 130.648438 597.472656 " fill-opacity="1" fill-rule="evenodd"/></g><path fill="#000000" d="M 808.285156 399.773438 L 808.285156 389.65625 C 808.285156 382.1875 811.070312 375.285156 815.925781 370.714844 C 827.671875 359.65625 834.414062 343.988281 834.414062 327.726562 C 834.414062 310.847656 827.265625 294.777344 814.804688 283.640625 C 802.523438 272.671875 786.773438 267.65625 770.386719 269.496094 C 743.644531 272.515625 722.347656 294.535156 719.734375 321.863281 C 717.980469 340.175781 724.5 357.867188 737.617188 370.410156 C 742.667969 375.25 745.574219 382.253906 745.574219 389.636719 L 745.574219 399.773438 C 745.574219 402.660156 747.914062 405 750.800781 405 L 803.058594 405 C 805.941406 405 808.285156 402.660156 808.285156 399.773438 Z M 797.832031 394.546875 L 756.027344 394.546875 L 756.027344 389.636719 C 756.027344 379.414062 751.945312 369.652344 744.832031 362.855469 C 734.046875 352.542969 728.683594 337.96875 730.132812 322.859375 C 732.28125 300.429688 749.699219 282.355469 771.558594 279.882812 C 784.929688 278.390625 797.8125 282.480469 807.839844 291.4375 C 818.082031 300.59375 823.960938 313.816406 823.960938 327.726562 C 823.960938 341.113281 818.421875 354.011719 808.757812 363.109375 C 801.816406 369.640625 797.832031 379.320312 797.832031 389.65625 Z M 797.832031 394.546875 " fill-opacity="1" fill-rule="nonzero"/><path fill="#000000" d="M 750.800781 410.226562 L 803.058594 410.226562 L 803.058594 420.675781 L 750.800781 420.675781 Z M 750.800781 410.226562 " fill-opacity="1" fill-rule="nonzero"/><path fill="#000000" d="M 802.328125 434.171875 L 802.785156 432.785156 C 803.320312 431.191406 803.046875 429.441406 802.066406 428.078125 C 801.089844 426.707031 799.511719 425.902344 797.832031 425.902344 L 756.027344 425.902344 C 754.347656 425.902344 752.769531 426.707031 751.789062 428.078125 C 750.804688 429.441406 750.539062 431.191406 751.066406 432.785156 L 751.527344 434.171875 C 755.089844 444.851562 765.054688 452.03125 776.316406 452.03125 L 777.539062 452.03125 C 788.800781 452.03125 798.769531 444.851562 802.328125 434.171875 Z M 777.539062 441.582031 L 776.316406 441.582031 C 771.746094 441.582031 767.539062 439.609375 764.628906 436.355469 L 789.230469 436.355469 C 786.320312 439.609375 782.113281 441.582031 777.539062 441.582031 Z M 777.539062 441.582031 " fill-opacity="1" fill-rule="nonzero"/><path fill="#000000" d="M 693.316406 316.160156 L 708.992188 316.160156 L 708.992188 326.613281 L 693.316406 326.613281 Z M 693.316406 316.160156 " fill-opacity="1" fill-rule="nonzero"/><g clip-path="url(#170cfdef59)"><path fill="#000000" d="M 844.863281 316.160156 L 860.542969 316.160156 L 860.542969 326.613281 L 844.863281 326.613281 Z M 844.863281 316.160156 " fill-opacity="1" fill-rule="nonzero"/></g><path fill="#000000" d="M 714.109375 265.960938 L 721.496094 258.570312 L 732.582031 269.65625 L 725.191406 277.046875 Z M 714.109375 265.960938 " fill-opacity="1" fill-rule="nonzero"/><path fill="#000000" d="M 821.269531 269.65625 L 832.351562 258.570312 L 839.742188 265.960938 L 828.660156 277.046875 Z M 821.269531 269.65625 " fill-opacity="1" fill-rule="nonzero"/><path fill="#000000" d="M 771.703125 243 L 782.15625 243 L 782.15625 258.675781 L 771.703125 258.675781 Z M 771.703125 243 " fill-opacity="1" fill-rule="nonzero"/><g clip-path="url(#f50027403e)"><path fill="#000000" d="M 549.785156 566.824219 C 550.234375 566.941406 550.6875 567 551.136719 567 C 552.613281 567 554.042969 566.371094 555.046875 565.242188 L 586.0625 530.273438 C 586.601562 529.667969 586.992188 528.941406 587.203125 528.15625 L 619.660156 407.007812 C 623.390625 393.089844 615.101562 378.734375 601.183594 375.003906 C 587.253906 371.277344 572.914062 379.566406 569.183594 393.480469 L 536.71875 514.632812 C 536.503906 515.417969 536.484375 516.238281 536.648438 517.03125 L 546.015625 562.824219 C 546.414062 564.761719 547.871094 566.308594 549.785156 566.824219 Z M 572.632812 529.660156 L 568.753906 534.035156 L 549.753906 528.945312 L 548.582031 523.21875 Z M 554.164062 550.488281 L 552.097656 540.390625 L 561.003906 542.777344 Z M 578.453125 520.402344 L 568.355469 517.695312 L 595.40625 416.738281 L 605.503906 419.445312 Z M 598.476562 385.101562 C 606.828125 387.335938 611.800781 395.953125 609.5625 404.300781 L 608.207031 409.347656 L 577.921875 401.238281 L 579.273438 396.1875 C 581.515625 387.839844 590.128906 382.867188 598.476562 385.101562 Z M 575.21875 411.328125 L 585.316406 414.035156 L 558.265625 514.992188 L 548.167969 512.285156 Z M 575.21875 411.328125 " fill-opacity="1" fill-rule="nonzero"/></g><path fill="#000000" d="M 782.15625 499.066406 L 782.15625 483.386719 L 771.703125 483.386719 L 771.703125 499.066406 C 771.703125 519.234375 755.292969 535.644531 735.121094 535.644531 L 724.671875 535.644531 C 704.5 535.644531 688.089844 519.234375 688.089844 499.066406 L 688.089844 405 C 688.089844 379.070312 666.988281 357.96875 641.058594 357.96875 L 635.832031 357.96875 L 635.832031 368.417969 L 641.058594 368.417969 C 661.230469 368.417969 677.640625 384.828125 677.640625 405 L 677.640625 499.066406 C 677.640625 524.996094 698.742188 546.097656 724.671875 546.097656 L 735.121094 546.097656 C 761.054688 546.097656 782.15625 524.996094 782.15625 499.066406 Z M 782.15625 499.066406 " fill-opacity="1" fill-rule="nonzero"/><path fill="#000000" d="M 771.703125 462.484375 L 782.15625 462.484375 L 782.15625 472.933594 L 771.703125 472.933594 Z M 771.703125 462.484375 " fill-opacity="1" fill-rule="nonzero"/><path fill="#000000" d="M 803.847656 315.277344 L 788.550781 312.941406 L 781.664062 298.261719 C 780.800781 296.429688 778.957031 295.257812 776.929688 295.257812 C 774.902344 295.257812 773.058594 296.429688 772.199219 298.261719 L 765.3125 312.941406 L 750.015625 315.277344 C 748.078125 315.574219 746.472656 316.929688 745.851562 318.785156 C 745.230469 320.640625 745.699219 322.695312 747.0625 324.09375 L 758.285156 335.597656 L 755.625 351.902344 C 755.300781 353.875 756.136719 355.863281 757.773438 357.015625 C 759.40625 358.171875 761.558594 358.28125 763.3125 357.320312 L 776.929688 349.789062 L 790.546875 357.316406 C 791.34375 357.75 792.210938 357.96875 793.078125 357.96875 C 794.132812 357.96875 795.1875 357.644531 796.085938 357.011719 C 797.722656 355.855469 798.558594 353.871094 798.234375 351.894531 L 795.574219 335.589844 L 806.792969 324.089844 C 808.164062 322.6875 808.632812 320.640625 808.007812 318.78125 C 807.378906 316.917969 805.78125 315.574219 803.847656 315.277344 Z M 786.253906 330.1875 C 785.09375 331.375 784.570312 333.039062 784.835938 334.675781 L 786.1875 342.964844 L 779.457031 339.242188 C 778.667969 338.808594 777.800781 338.589844 776.929688 338.589844 C 776.054688 338.589844 775.1875 338.808594 774.398438 339.242188 L 767.667969 342.964844 L 769.023438 334.675781 C 769.289062 333.039062 768.765625 331.375 767.605469 330.1875 L 761.644531 324.078125 L 769.644531 322.855469 C 771.367188 322.589844 772.847656 321.488281 773.585938 319.90625 L 776.929688 312.785156 L 780.273438 319.90625 C 781.015625 321.488281 782.496094 322.589844 784.214844 322.855469 L 792.214844 324.078125 Z M 786.253906 330.1875 " fill-opacity="1" fill-rule="nonzero"/><path fill="#000000" d="M 614.929688 357.96875 L 625.382812 357.96875 L 625.382812 368.417969 L 614.929688 368.417969 Z M 614.929688 357.96875 " fill-opacity="1" fill-rule="nonzero"/></svg>