<svg xmlns="http://www.w3.org/2000/svg" xmlns:xlink="http://www.w3.org/1999/xlink" width="1920" zoomAndPan="magnify" viewBox="0 0 1440 809.999993" height="1080" preserveAspectRatio="xMidYMid meet" version="1.0"><defs><clipPath id="fe8c1bf5b0"><path d="M 106.039062 585.113281 L 155.535156 585.113281 L 155.535156 656 L 106.039062 656 Z M 106.039062 585.113281 " clip-rule="nonzero"/></clipPath></defs><rect x="-144" width="1728" fill="#ffffff" y="-80.999999" height="971.999992" fill-opacity="1"/><rect x="-144" width="1728" fill="#9370db" y="-80.999999" height="971.999992" fill-opacity="1"/><g clip-path="url(#fe8c1bf5b0)"><path fill="#9370db" d="M 130.648438 585.132812 C 144.238281 585.132812 155.257812 596.152344 155.257812 609.742188 C 155.257812 614.472656 153.921875 618.890625 151.609375 622.640625 C 148.835938 627.234375 146.0625 631.828125 143.289062 636.421875 C 139.910156 641.914062 137.179688 646.355469 133.800781 651.847656 C 130.824219 656.6875 130.621094 656.808594 127.628906 651.941406 C 124.265625 646.476562 121.441406 641.886719 118.082031 636.421875 C 115.3125 631.878906 112.546875 627.335938 109.78125 622.792969 C 107.410156 619.011719 106.039062 614.539062 106.039062 609.742188 C 106.039062 596.152344 117.054688 585.132812 130.648438 585.132812 Z M 130.648438 597.472656 C 136.738281 597.472656 141.679688 602.410156 141.679688 608.503906 C 141.679688 614.597656 136.742188 619.539062 130.648438 619.539062 C 124.554688 619.539062 119.613281 614.597656 119.613281 608.503906 C 119.613281 602.410156 124.554688 597.472656 130.648438 597.472656 Z M 130.648438 597.472656 " fill-opacity="1" fill-rule="evenodd"/></g><path fill="#000000" d="M 633.601562 442.800781 C 630.625 442.800781 628.199219 445.226562 628.199219 448.199219 L 628.199219 475.199219 C 628.199219 478.175781 630.625 480.601562 633.601562 480.601562 C 636.574219 480.601562 639 478.175781 639 475.199219 L 639 448.199219 C 639 445.226562 636.574219 442.800781 633.601562 442.800781 " fill-opacity="1" fill-rule="nonzero"/><path fill="#000000" d="M 871.199219 496.800781 L 676.800781 496.800781 L 676.800781 459 C 676.800781 435.183594 657.414062 415.800781 633.601562 415.800781 C 609.785156 415.800781 590.398438 435.183594 590.398438 459 L 590.398438 496.800781 L 568.800781 496.800781 L 568.800781 351 L 601.199219 351 C 604.175781 351 606.601562 348.574219 606.601562 345.601562 L 606.601562 313.199219 L 817.199219 313.199219 L 817.199219 388.800781 C 817.199219 388.882812 817.242188 388.949219 817.242188 389.011719 C 817.261719 389.644531 817.367188 390.253906 817.621094 390.847656 C 817.621094 390.867188 817.621094 390.886719 817.644531 390.910156 C 817.644531 390.929688 817.644531 390.929688 817.644531 390.929688 L 833.84375 428.730469 C 834.6875 430.714844 836.648438 432 838.800781 432 C 840.953125 432 842.914062 430.714844 843.757812 428.730469 L 859.957031 390.929688 C 859.957031 390.929688 859.957031 390.929688 859.957031 390.910156 C 859.976562 390.886719 859.976562 390.867188 859.976562 390.847656 C 860.230469 390.253906 860.335938 389.644531 860.359375 389.011719 C 860.359375 388.949219 860.398438 388.882812 860.398438 388.800781 L 860.398438 313.199219 L 871.199219 313.199219 Z M 666 523.800781 C 666 541.667969 651.464844 556.199219 633.601562 556.199219 C 615.734375 556.199219 601.199219 541.667969 601.199219 523.800781 L 601.199219 459 C 601.199219 441.132812 615.734375 426.601562 633.601562 426.601562 C 651.464844 426.601562 666 441.132812 666 459 Z M 595.800781 320.835938 L 595.800781 340.199219 L 576.4375 340.199219 Z M 588.164062 313.199219 L 568.800781 332.5625 L 568.800781 313.199219 Z M 828 253.800781 L 849.601562 253.800781 L 849.601562 264.601562 L 828 264.601562 Z M 846.816406 394.199219 L 838.800781 412.890625 L 830.785156 394.199219 Z M 849.601562 383.398438 L 828 383.398438 L 828 275.398438 L 849.601562 275.398438 Z M 876.601562 302.398438 L 860.398438 302.398438 L 860.398438 248.398438 C 860.398438 245.425781 857.972656 243 855 243 L 822.601562 243 C 819.625 243 817.199219 245.425781 817.199219 248.398438 L 817.199219 302.398438 L 563.398438 302.398438 C 560.425781 302.398438 558 304.824219 558 307.800781 L 558 502.199219 C 558 505.175781 560.425781 507.601562 563.398438 507.601562 L 590.398438 507.601562 L 590.398438 523.800781 C 590.398438 547.613281 609.785156 567 633.601562 567 C 657.414062 567 676.800781 547.613281 676.800781 523.800781 L 676.800781 507.601562 L 876.601562 507.601562 C 879.574219 507.601562 882 505.175781 882 502.199219 L 882 307.800781 C 882 304.824219 879.574219 302.398438 876.601562 302.398438 " fill-opacity="1" fill-rule="nonzero"/><path fill="#000000" d="M 855 475.199219 L 844.199219 475.199219 C 841.226562 475.199219 838.800781 477.625 838.800781 480.601562 C 838.800781 483.574219 841.226562 486 844.199219 486 L 855 486 C 857.972656 486 860.398438 483.574219 860.398438 480.601562 C 860.398438 477.625 857.972656 475.199219 855 475.199219 " fill-opacity="1" fill-rule="nonzero"/><path fill="#000000" d="M 822.601562 475.199219 L 811.800781 475.199219 C 808.824219 475.199219 806.398438 477.625 806.398438 480.601562 C 806.398438 483.574219 808.824219 486 811.800781 486 L 822.601562 486 C 825.574219 486 828 483.574219 828 480.601562 C 828 477.625 825.574219 475.199219 822.601562 475.199219 " fill-opacity="1" fill-rule="nonzero"/><path fill="#000000" d="M 778.175781 342.183594 C 776.277344 339.882812 772.882812 339.523438 770.582031 341.421875 L 714.769531 387.089844 L 664.207031 341.59375 C 662.351562 339.90625 659.585938 339.734375 657.519531 341.148438 L 587.320312 389.75 C 584.875 391.457031 584.261719 394.8125 585.949219 397.28125 C 587.003906 398.777344 588.691406 399.601562 590.398438 399.601562 C 591.476562 399.601562 592.53125 399.285156 593.480469 398.652344 L 660.15625 352.476562 L 710.992188 398.207031 C 712.976562 400 715.949219 400.0625 718.015625 398.375 L 777.417969 349.777344 C 779.714844 347.898438 780.074219 344.480469 778.175781 342.183594 " fill-opacity="1" fill-rule="nonzero"/><path fill="#000000" d="M 740.546875 453.601562 L 757.800781 425.988281 L 775.054688 453.601562 Z M 762.378906 412.929688 C 760.394531 409.789062 755.207031 409.789062 753.222656 412.929688 L 726.222656 456.132812 C 725.1875 457.796875 725.125 459.90625 726.074219 461.617188 C 727.023438 463.324219 728.839844 464.398438 730.800781 464.398438 L 784.800781 464.398438 C 786.761719 464.398438 788.574219 463.324219 789.523438 461.617188 C 790.472656 459.90625 790.410156 457.796875 789.378906 456.132812 L 762.378906 412.929688 " fill-opacity="1" fill-rule="nonzero"/></svg>