<svg xmlns="http://www.w3.org/2000/svg" xmlns:xlink="http://www.w3.org/1999/xlink" width="1920" zoomAndPan="magnify" viewBox="0 0 1440 809.999993" height="1080" preserveAspectRatio="xMidYMid meet" version="1.0"><defs><clipPath id="d184bb613b"><path d="M 106.039062 585.113281 L 155.535156 585.113281 L 155.535156 656 L 106.039062 656 Z M 106.039062 585.113281 " clip-rule="nonzero"/></clipPath></defs><rect x="-144" width="1728" fill="#ffffff" y="-80.999999" height="971.999992" fill-opacity="1"/><rect x="-144" width="1728" fill="#9370db" y="-80.999999" height="971.999992" fill-opacity="1"/><g clip-path="url(#d184bb613b)"><path fill="#9370db" d="M 130.648438 585.132812 C 144.238281 585.132812 155.257812 596.152344 155.257812 609.742188 C 155.257812 614.472656 153.921875 618.890625 151.609375 622.640625 C 148.835938 627.234375 146.0625 631.828125 143.289062 636.421875 C 139.910156 641.914062 137.179688 646.355469 133.800781 651.847656 C 130.824219 656.6875 130.621094 656.808594 127.628906 651.941406 C 124.265625 646.476562 121.441406 641.886719 118.082031 636.421875 C 115.3125 631.878906 112.546875 627.335938 109.78125 622.792969 C 107.410156 619.011719 106.039062 614.539062 106.039062 609.742188 C 106.039062 596.152344 117.054688 585.132812 130.648438 585.132812 Z M 130.648438 597.472656 C 136.738281 597.472656 141.679688 602.410156 141.679688 608.503906 C 141.679688 614.597656 136.742188 619.539062 130.648438 619.539062 C 124.554688 619.539062 119.613281 614.597656 119.613281 608.503906 C 119.613281 602.410156 124.554688 597.472656 130.648438 597.472656 Z M 130.648438 597.472656 " fill-opacity="1" fill-rule="evenodd"/></g><path fill="#000000" d="M 882 405 C 882 365.71875 867.941406 329.664062 844.601562 301.585938 C 844.453125 301.347656 844.292969 301.113281 844.109375 300.890625 C 843.898438 300.640625 843.671875 300.414062 843.433594 300.207031 C 813.695312 265.230469 769.398438 243 720 243 C 670.601562 243 626.304688 265.230469 596.566406 300.207031 C 596.328125 300.417969 596.101562 300.640625 595.890625 300.890625 C 595.707031 301.113281 595.546875 301.347656 595.398438 301.585938 C 572.058594 329.664062 558 365.71875 558 405 C 558 446.9375 574.019531 485.203125 600.261719 514.003906 C 600.316406 514.085938 600.367188 514.167969 600.425781 514.246094 C 600.742188 514.664062 601.105469 515.023438 601.5 515.332031 C 631.09375 547.097656 673.261719 567 720 567 C 766.730469 567 808.894531 547.101562 838.488281 515.34375 C 838.886719 515.03125 839.253906 514.667969 839.574219 514.246094 C 839.632812 514.167969 839.683594 514.085938 839.738281 514.003906 C 865.980469 485.203125 882 446.9375 882 405 Z M 817.011719 492.167969 C 827.941406 468.054688 834.128906 440.238281 834.882812 411.085938 L 869.695312 411.085938 C 868.300781 445.851562 855.007812 477.601562 833.78125 502.371094 C 828.507812 498.6875 822.902344 495.28125 817.011719 492.167969 Z M 606.21875 502.371094 C 584.992188 477.601562 571.699219 445.851562 570.304688 411.085938 L 605.117188 411.085938 C 605.871094 440.238281 612.058594 468.054688 622.988281 492.167969 C 617.097656 495.28125 611.492188 498.6875 606.21875 502.371094 Z M 601.574219 313.328125 C 607.257812 317.644531 613.363281 321.613281 619.832031 325.21875 C 610.867188 347.554688 605.796875 372.695312 605.117188 398.914062 L 570.304688 398.914062 C 571.59375 366.761719 583.0625 337.1875 601.574219 313.328125 Z M 869.695312 398.914062 L 834.882812 398.914062 C 834.203125 372.695312 829.132812 347.554688 820.167969 325.21875 C 826.636719 321.613281 832.742188 317.644531 838.425781 313.328125 C 856.9375 337.1875 868.40625 366.761719 869.695312 398.914062 Z M 822.710938 398.914062 L 773.007812 398.914062 C 772.792969 379.90625 771.566406 361.472656 769.414062 344.292969 C 783.511719 341.105469 796.921875 336.5625 809.277344 330.785156 C 817.230469 351.023438 822.03125 374.207031 822.710938 398.914062 Z M 726.085938 552.6875 L 726.085938 481.597656 C 735.636719 481.867188 745.078125 482.765625 754.28125 484.261719 C 752.367188 494.78125 750.058594 504.597656 747.378906 513.492188 C 741.355469 533.503906 733.597656 547.558594 726.085938 552.6875 Z M 692.621094 513.492188 C 689.941406 504.597656 687.632812 494.78125 685.71875 484.261719 C 694.921875 482.765625 704.363281 481.867188 713.914062 481.597656 L 713.914062 552.6875 C 706.402344 547.558594 698.644531 533.503906 692.621094 513.492188 Z M 713.914062 257.3125 L 713.914062 337.484375 C 703.816406 337.203125 693.878906 336.230469 684.230469 334.601562 C 686.386719 320.703125 689.199219 307.859375 692.621094 296.507812 C 698.644531 276.496094 706.402344 262.441406 713.914062 257.3125 Z M 747.378906 296.507812 C 750.800781 307.859375 753.613281 320.703125 755.769531 334.601562 C 746.121094 336.230469 736.183594 337.203125 726.085938 337.484375 L 726.085938 257.3125 C 733.597656 262.441406 741.355469 276.496094 747.378906 296.507812 Z M 713.914062 349.65625 L 713.914062 398.914062 L 679.164062 398.914062 C 679.375 380.707031 680.527344 363.074219 682.554688 346.648438 C 692.761719 348.359375 703.257812 349.375 713.914062 349.65625 Z M 713.914062 411.085938 L 713.914062 469.425781 C 703.707031 469.699219 693.609375 470.65625 683.757812 472.265625 C 680.988281 453.375 679.410156 432.632812 679.164062 411.085938 Z M 726.085938 469.425781 L 726.085938 411.085938 L 760.835938 411.085938 C 760.589844 432.632812 759.011719 453.375 756.242188 472.265625 C 746.390625 470.65625 736.292969 469.699219 726.085938 469.425781 Z M 726.085938 398.914062 L 726.085938 349.65625 C 736.742188 349.375 747.238281 348.359375 757.445312 346.648438 C 759.472656 363.074219 760.625 380.707031 760.835938 398.914062 Z M 767.710938 332.21875 C 765.472656 317.945312 762.5625 304.722656 759.03125 292.996094 C 754.78125 278.886719 749.851562 267.652344 744.363281 259.433594 C 769.074219 268.21875 790.316406 290.058594 804.433594 319.636719 C 793.074219 324.980469 780.71875 329.210938 767.710938 332.21875 Z M 695.636719 259.433594 C 690.148438 267.652344 685.21875 278.886719 680.96875 292.996094 C 677.4375 304.722656 674.527344 317.945312 672.289062 332.21875 C 659.28125 329.210938 646.925781 324.980469 635.566406 319.636719 C 649.683594 290.058594 670.925781 268.21875 695.636719 259.433594 Z M 670.585938 344.292969 C 668.433594 361.472656 667.207031 379.90625 666.992188 398.914062 L 617.289062 398.914062 C 617.96875 374.207031 622.769531 351.023438 630.722656 330.785156 C 643.078125 336.5625 656.488281 341.105469 670.585938 344.292969 Z M 617.289062 411.085938 L 666.992188 411.085938 C 667.246094 433.402344 668.894531 454.925781 671.800781 474.558594 C 658.496094 477.496094 645.761719 481.632812 633.945312 486.867188 C 624.078125 464.90625 618.058594 438.964844 617.289062 411.085938 Z M 673.773438 486.566406 C 675.765625 497.5 678.171875 507.722656 680.96875 517.003906 C 685.21875 531.113281 690.148438 542.347656 695.636719 550.566406 C 673.035156 542.53125 653.335938 523.582031 639.332031 497.773438 C 650.089844 493.046875 661.667969 489.277344 673.773438 486.566406 Z M 744.363281 550.566406 C 749.851562 542.347656 754.78125 531.113281 759.03125 517.003906 C 761.828125 507.722656 764.234375 497.5 766.226562 486.566406 C 778.332031 489.277344 789.910156 493.046875 800.667969 497.773438 C 786.664062 523.582031 766.964844 542.53125 744.363281 550.566406 Z M 768.199219 474.558594 C 771.105469 454.925781 772.753906 433.402344 773.007812 411.085938 L 822.710938 411.085938 C 821.941406 438.964844 815.921875 464.90625 806.054688 486.867188 C 794.238281 481.632812 781.503906 477.496094 768.199219 474.558594 Z M 830.582031 304.007812 C 825.777344 307.621094 820.652344 310.972656 815.242188 314.046875 C 811.355469 305.980469 806.929688 298.351562 801.984375 291.265625 C 796.007812 282.710938 789.472656 275.21875 782.492188 268.84375 C 800.804688 277.28125 817.136719 289.300781 830.582031 304.007812 Z M 657.507812 268.84375 C 650.527344 275.21875 643.992188 282.710938 638.015625 291.265625 C 633.070312 298.351562 628.644531 305.980469 624.757812 314.046875 C 619.347656 310.972656 614.222656 307.621094 609.417969 304.007812 C 622.863281 289.300781 639.195312 277.28125 657.507812 268.84375 Z M 614.589844 511.371094 C 618.957031 508.402344 623.570312 505.632812 628.390625 503.074219 C 631.339844 508.535156 634.550781 513.765625 638.015625 518.734375 C 643.992188 527.289062 650.527344 534.78125 657.507812 541.15625 C 641.480469 533.773438 626.972656 523.644531 614.589844 511.371094 Z M 801.984375 518.734375 C 805.449219 513.765625 808.660156 508.535156 811.609375 503.074219 C 816.429688 505.632812 821.042969 508.402344 825.410156 511.371094 C 813.027344 523.644531 798.519531 533.773438 782.492188 541.15625 C 789.472656 534.78125 796.007812 527.289062 801.984375 518.734375 Z M 801.984375 518.734375 " fill-opacity="1" fill-rule="nonzero"/></svg>