<svg xmlns="http://www.w3.org/2000/svg" xmlns:xlink="http://www.w3.org/1999/xlink" width="1920" zoomAndPan="magnify" viewBox="0 0 1440 809.999993" height="1080" preserveAspectRatio="xMidYMid meet" version="1.0"><defs><clipPath id="2f900d8ff5"><path d="M 106.039062 585.113281 L 155.535156 585.113281 L 155.535156 656 L 106.039062 656 Z M 106.039062 585.113281 " clip-rule="nonzero"/></clipPath><clipPath id="e7a2c363e8"><path d="M 531.628906 243 L 908.128906 243 L 908.128906 567 L 531.628906 567 Z M 531.628906 243 " clip-rule="nonzero"/></clipPath></defs><rect x="-144" width="1728" fill="#ffffff" y="-80.999999" height="971.999992" fill-opacity="1"/><rect x="-144" width="1728" fill="#9370db" y="-80.999999" height="971.999992" fill-opacity="1"/><g clip-path="url(#2f900d8ff5)"><path fill="#9370db" d="M 130.648438 585.132812 C 144.238281 585.132812 155.257812 596.152344 155.257812 609.742188 C 155.257812 614.472656 153.921875 618.890625 151.609375 622.640625 C 148.835938 627.234375 146.0625 631.828125 143.289062 636.421875 C 139.910156 641.914062 137.179688 646.355469 133.800781 651.847656 C 130.824219 656.6875 130.621094 656.808594 127.628906 651.941406 C 124.265625 646.476562 121.441406 641.886719 118.082031 636.421875 C 115.3125 631.878906 112.546875 627.335938 109.78125 622.792969 C 107.410156 619.011719 106.039062 614.539062 106.039062 609.742188 C 106.039062 596.152344 117.054688 585.132812 130.648438 585.132812 Z M 130.648438 597.472656 C 136.738281 597.472656 141.679688 602.410156 141.679688 608.503906 C 141.679688 614.597656 136.742188 619.539062 130.648438 619.539062 C 124.554688 619.539062 119.613281 614.597656 119.613281 608.503906 C 119.613281 602.410156 124.554688 597.472656 130.648438 597.472656 Z M 130.648438 597.472656 " fill-opacity="1" fill-rule="evenodd"/></g><g clip-path="url(#e7a2c363e8)"><path fill="#000000" d="M 543.394531 254.894531 L 543.394531 555.105469 L 896.363281 555.105469 L 896.363281 254.894531 Z M 543.394531 243.121094 L 896.363281 243.121094 C 902.859375 243.121094 908.128906 248.394531 908.128906 254.894531 L 908.128906 555.105469 C 908.128906 561.605469 902.859375 566.878906 896.363281 566.878906 L 543.394531 566.878906 C 536.894531 566.878906 531.628906 561.605469 531.628906 555.105469 L 531.628906 254.894531 C 531.628906 248.394531 536.894531 243.121094 543.394531 243.121094 Z M 558.101562 287.269531 C 551.601562 287.269531 546.335938 282 546.335938 275.496094 C 546.335938 268.996094 551.601562 263.726562 558.101562 263.726562 C 564.597656 263.726562 569.867188 268.996094 569.867188 275.496094 C 569.867188 282 564.597656 287.269531 558.101562 287.269531 Z M 558.101562 281.382812 C 561.347656 281.382812 563.984375 278.75 563.984375 275.496094 C 563.984375 272.246094 561.347656 269.609375 558.101562 269.609375 C 554.851562 269.609375 552.21875 272.246094 552.21875 275.496094 C 552.21875 278.75 554.851562 281.382812 558.101562 281.382812 Z M 587.515625 287.269531 C 581.015625 287.269531 575.75 282 575.75 275.496094 C 575.75 268.996094 581.015625 263.726562 587.515625 263.726562 C 594.011719 263.726562 599.28125 268.996094 599.28125 275.496094 C 599.28125 282 594.011719 287.269531 587.515625 287.269531 Z M 587.515625 281.382812 C 590.761719 281.382812 593.398438 278.75 593.398438 275.496094 C 593.398438 272.246094 590.761719 269.609375 587.515625 269.609375 C 584.265625 269.609375 581.632812 272.246094 581.632812 275.496094 C 581.632812 278.75 584.265625 281.382812 587.515625 281.382812 Z M 616.929688 287.269531 C 610.429688 287.269531 605.164062 282 605.164062 275.496094 C 605.164062 268.996094 610.429688 263.726562 616.929688 263.726562 C 623.425781 263.726562 628.695312 268.996094 628.695312 275.496094 C 628.695312 282 623.425781 287.269531 616.929688 287.269531 Z M 616.929688 281.382812 C 620.175781 281.382812 622.8125 278.75 622.8125 275.496094 C 622.8125 272.246094 620.175781 269.609375 616.929688 269.609375 C 613.679688 269.609375 611.046875 272.246094 611.046875 275.496094 C 611.046875 278.75 613.679688 281.382812 616.929688 281.382812 Z M 543.394531 296.101562 L 896.363281 296.101562 L 896.363281 307.875 L 543.394531 307.875 Z M 572.808594 331.417969 C 569.558594 331.417969 566.925781 334.054688 566.925781 337.304688 L 566.925781 402.058594 C 566.925781 405.308594 569.558594 407.941406 572.808594 407.941406 L 713.996094 407.941406 C 717.242188 407.941406 719.878906 405.308594 719.878906 402.058594 L 719.878906 337.304688 C 719.878906 334.054688 717.242188 331.417969 713.996094 331.417969 Z M 572.808594 325.53125 L 713.996094 325.53125 C 720.492188 325.53125 725.761719 330.804688 725.761719 337.304688 L 725.761719 402.058594 C 725.761719 408.558594 720.492188 413.828125 713.996094 413.828125 L 572.808594 413.828125 C 566.308594 413.828125 561.042969 408.558594 561.042969 402.058594 L 561.042969 337.304688 C 561.042969 330.804688 566.308594 325.53125 572.808594 325.53125 Z M 749.292969 337.304688 L 872.832031 337.304688 C 876.078125 337.304688 878.714844 339.941406 878.714844 343.191406 C 878.714844 346.441406 876.078125 349.078125 872.832031 349.078125 L 749.292969 349.078125 C 746.042969 349.078125 743.410156 346.441406 743.410156 343.191406 C 743.410156 339.941406 746.042969 337.304688 749.292969 337.304688 Z M 746.351562 360.851562 L 846.359375 360.851562 C 847.984375 360.851562 849.300781 362.167969 849.300781 363.792969 C 849.300781 365.421875 847.984375 366.738281 846.359375 366.738281 L 746.351562 366.738281 C 744.726562 366.738281 743.410156 365.421875 743.410156 363.792969 C 743.410156 362.167969 744.726562 360.851562 746.351562 360.851562 Z M 746.351562 372.625 L 846.359375 372.625 C 847.984375 372.625 849.300781 373.941406 849.300781 375.566406 C 849.300781 377.191406 847.984375 378.511719 846.359375 378.511719 L 746.351562 378.511719 C 744.726562 378.511719 743.410156 377.191406 743.410156 375.566406 C 743.410156 373.941406 744.726562 372.625 746.351562 372.625 Z M 746.351562 384.398438 L 846.359375 384.398438 C 847.984375 384.398438 849.300781 385.714844 849.300781 387.339844 C 849.300781 388.964844 847.984375 390.285156 846.359375 390.285156 L 746.351562 390.285156 C 744.726562 390.285156 743.410156 388.964844 743.410156 387.339844 C 743.410156 385.714844 744.726562 384.398438 746.351562 384.398438 Z M 746.351562 396.171875 L 787.53125 396.171875 C 789.15625 396.171875 790.472656 397.488281 790.472656 399.113281 C 790.472656 400.738281 789.15625 402.058594 787.53125 402.058594 L 746.351562 402.058594 C 744.726562 402.058594 743.410156 400.738281 743.410156 399.113281 C 743.410156 397.488281 744.726562 396.171875 746.351562 396.171875 Z M 866.949219 437.375 L 796.355469 437.375 C 793.105469 437.375 790.472656 440.011719 790.472656 443.261719 L 790.472656 484.46875 C 790.472656 487.71875 793.105469 490.355469 796.355469 490.355469 L 866.949219 490.355469 C 870.195312 490.355469 872.832031 487.71875 872.832031 484.46875 L 872.832031 443.261719 C 872.832031 440.011719 870.195312 437.375 866.949219 437.375 Z M 866.949219 431.488281 C 873.445312 431.488281 878.714844 436.761719 878.714844 443.261719 L 878.714844 484.46875 C 878.714844 490.96875 873.445312 496.242188 866.949219 496.242188 L 796.355469 496.242188 C 789.855469 496.242188 784.589844 490.96875 784.589844 484.46875 L 784.589844 443.261719 C 784.589844 436.761719 789.855469 431.488281 796.355469 431.488281 Z M 755.175781 437.375 L 684.582031 437.375 C 681.332031 437.375 678.699219 440.011719 678.699219 443.261719 L 678.699219 484.46875 C 678.699219 487.71875 681.332031 490.355469 684.582031 490.355469 L 755.175781 490.355469 C 758.421875 490.355469 761.058594 487.71875 761.058594 484.46875 L 761.058594 443.261719 C 761.058594 440.011719 758.421875 437.375 755.175781 437.375 Z M 755.175781 431.488281 C 761.671875 431.488281 766.941406 436.761719 766.941406 443.261719 L 766.941406 484.46875 C 766.941406 490.96875 761.671875 496.242188 755.175781 496.242188 L 684.582031 496.242188 C 678.082031 496.242188 672.816406 490.96875 672.816406 484.46875 L 672.816406 443.261719 C 672.816406 436.761719 678.082031 431.488281 684.582031 431.488281 Z M 643.402344 437.375 L 572.808594 437.375 C 569.558594 437.375 566.925781 440.011719 566.925781 443.261719 L 566.925781 484.46875 C 566.925781 487.71875 569.558594 490.355469 572.808594 490.355469 L 643.402344 490.355469 C 646.648438 490.355469 649.285156 487.71875 649.285156 484.46875 L 649.285156 443.261719 C 649.285156 440.011719 646.648438 437.375 643.402344 437.375 Z M 643.402344 431.488281 C 649.898438 431.488281 655.167969 436.761719 655.167969 443.261719 L 655.167969 484.46875 C 655.167969 490.96875 649.898438 496.242188 643.402344 496.242188 L 572.808594 496.242188 C 566.308594 496.242188 561.042969 490.96875 561.042969 484.46875 L 561.042969 443.261719 C 561.042969 436.761719 566.308594 431.488281 572.808594 431.488281 Z M 563.984375 508.011719 L 652.226562 508.011719 C 653.851562 508.011719 655.167969 509.332031 655.167969 510.957031 C 655.167969 512.582031 653.851562 513.898438 652.226562 513.898438 L 563.984375 513.898438 C 562.359375 513.898438 561.042969 512.582031 561.042969 510.957031 C 561.042969 509.332031 562.359375 508.011719 563.984375 508.011719 Z M 563.984375 519.785156 L 652.226562 519.785156 C 653.851562 519.785156 655.167969 521.105469 655.167969 522.730469 C 655.167969 524.355469 653.851562 525.671875 652.226562 525.671875 L 563.984375 525.671875 C 562.359375 525.671875 561.042969 524.355469 561.042969 522.730469 C 561.042969 521.105469 562.359375 519.785156 563.984375 519.785156 Z M 563.984375 531.558594 L 605.164062 531.558594 C 606.789062 531.558594 608.105469 532.875 608.105469 534.503906 C 608.105469 536.128906 606.789062 537.445312 605.164062 537.445312 L 563.984375 537.445312 C 562.359375 537.445312 561.042969 536.128906 561.042969 534.503906 C 561.042969 532.875 562.359375 531.558594 563.984375 531.558594 Z M 675.757812 508.011719 L 764 508.011719 C 765.625 508.011719 766.941406 509.332031 766.941406 510.957031 C 766.941406 512.582031 765.625 513.898438 764 513.898438 L 675.757812 513.898438 C 674.132812 513.898438 672.816406 512.582031 672.816406 510.957031 C 672.816406 509.332031 674.132812 508.011719 675.757812 508.011719 Z M 675.757812 519.785156 L 764 519.785156 C 765.625 519.785156 766.941406 521.105469 766.941406 522.730469 C 766.941406 524.355469 765.625 525.671875 764 525.671875 L 675.757812 525.671875 C 674.132812 525.671875 672.816406 524.355469 672.816406 522.730469 C 672.816406 521.105469 674.132812 519.785156 675.757812 519.785156 Z M 675.757812 531.558594 L 716.9375 531.558594 C 718.5625 531.558594 719.878906 532.875 719.878906 534.503906 C 719.878906 536.128906 718.5625 537.445312 716.9375 537.445312 L 675.757812 537.445312 C 674.132812 537.445312 672.816406 536.128906 672.816406 534.503906 C 672.816406 532.875 674.132812 531.558594 675.757812 531.558594 Z M 787.53125 508.011719 L 875.773438 508.011719 C 877.398438 508.011719 878.714844 509.332031 878.714844 510.957031 C 878.714844 512.582031 877.398438 513.898438 875.773438 513.898438 L 787.53125 513.898438 C 785.90625 513.898438 784.589844 512.582031 784.589844 510.957031 C 784.589844 509.332031 785.90625 508.011719 787.53125 508.011719 Z M 787.53125 519.785156 L 875.773438 519.785156 C 877.398438 519.785156 878.714844 521.105469 878.714844 522.730469 C 878.714844 524.355469 877.398438 525.671875 875.773438 525.671875 L 787.53125 525.671875 C 785.90625 525.671875 784.589844 524.355469 784.589844 522.730469 C 784.589844 521.105469 785.90625 519.785156 787.53125 519.785156 Z M 787.53125 531.558594 L 828.710938 531.558594 C 830.335938 531.558594 831.652344 532.875 831.652344 534.503906 C 831.652344 536.128906 830.335938 537.445312 828.710938 537.445312 L 787.53125 537.445312 C 785.90625 537.445312 784.589844 536.128906 784.589844 534.503906 C 784.589844 532.875 785.90625 531.558594 787.53125 531.558594 Z M 787.53125 531.558594 " fill-opacity="1" fill-rule="nonzero"/></g></svg>