<svg xmlns="http://www.w3.org/2000/svg" xmlns:xlink="http://www.w3.org/1999/xlink" width="1920" zoomAndPan="magnify" viewBox="0 0 1440 809.999993" height="1080" preserveAspectRatio="xMidYMid meet" version="1.0"><defs><clipPath id="c8747f3166"><path d="M 106.039062 585.113281 L 155.535156 585.113281 L 155.535156 656 L 106.039062 656 Z M 106.039062 585.113281 " clip-rule="nonzero"/></clipPath><clipPath id="3551aef96b"><path d="M 557.390625 243 L 882 243 L 882 567 L 557.390625 567 Z M 557.390625 243 " clip-rule="nonzero"/></clipPath></defs><rect x="-144" width="1728" fill="#ffffff" y="-80.999999" height="971.999992" fill-opacity="1"/><rect x="-144" width="1728" fill="#9370db" y="-80.999999" height="971.999992" fill-opacity="1"/><g clip-path="url(#c8747f3166)"><path fill="#9370db" d="M 130.648438 585.132812 C 144.238281 585.132812 155.257812 596.152344 155.257812 609.742188 C 155.257812 614.472656 153.921875 618.890625 151.609375 622.640625 C 148.835938 627.234375 146.0625 631.828125 143.289062 636.421875 C 139.910156 641.914062 137.179688 646.355469 133.800781 651.847656 C 130.824219 656.6875 130.621094 656.808594 127.628906 651.941406 C 124.265625 646.476562 121.441406 641.886719 118.082031 636.421875 C 115.3125 631.878906 112.546875 627.335938 109.78125 622.792969 C 107.410156 619.011719 106.039062 614.539062 106.039062 609.742188 C 106.039062 596.152344 117.054688 585.132812 130.648438 585.132812 Z M 130.648438 597.472656 C 136.738281 597.472656 141.679688 602.410156 141.679688 608.503906 C 141.679688 614.597656 136.742188 619.539062 130.648438 619.539062 C 124.554688 619.539062 119.613281 614.597656 119.613281 608.503906 C 119.613281 602.410156 124.554688 597.472656 130.648438 597.472656 Z M 130.648438 597.472656 " fill-opacity="1" fill-rule="evenodd"/></g><g clip-path="url(#3551aef96b)"><path fill="#000000" d="M 628.75 385.519531 C 668.078125 385.519531 700.070312 353.554688 700.070312 314.261719 C 700.070312 274.96875 668.078125 243 628.75 243 C 589.425781 243 557.429688 274.96875 557.429688 314.261719 C 557.429688 353.554688 589.425781 385.519531 628.75 385.519531 Z M 664.007812 364.199219 L 637.609375 319.328125 L 689.726562 319.347656 C 688.191406 337.851562 678.382812 354.039062 664.007812 364.199219 Z M 689.730469 309.222656 L 633.816406 309.199219 L 633.816406 253.335938 C 663.53125 255.78125 687.296875 279.53125 689.730469 309.222656 Z M 623.683594 253.335938 L 623.683594 314.261719 C 623.683594 315.164062 623.925781 316.046875 624.382812 316.824219 L 655.28125 369.34375 C 647.253906 373.222656 638.25 375.394531 628.753906 375.394531 C 595.011719 375.394531 567.566406 347.96875 567.566406 314.261719 C 567.5625 282.253906 592.308594 255.917969 623.683594 253.335938 Z M 773.554688 251.375 C 773.554688 248.582031 775.824219 246.3125 778.621094 246.3125 L 876.644531 246.3125 C 879.441406 246.3125 881.710938 248.582031 881.710938 251.375 C 881.710938 254.171875 879.441406 256.4375 876.644531 256.4375 L 778.621094 256.4375 C 775.824219 256.4375 773.554688 254.171875 773.554688 251.375 Z M 773.554688 272.570312 C 773.554688 269.777344 775.824219 267.507812 778.621094 267.507812 L 827.632812 267.507812 C 830.429688 267.507812 832.699219 269.777344 832.699219 272.570312 C 832.699219 275.367188 830.429688 277.632812 827.632812 277.632812 L 778.621094 277.632812 C 775.824219 277.632812 773.554688 275.367188 773.554688 272.570312 Z M 728.132812 280.945312 L 755.980469 280.945312 C 758.777344 280.945312 761.046875 278.679688 761.046875 275.882812 L 761.046875 248.0625 C 761.046875 245.265625 758.777344 243 755.980469 243 L 728.132812 243 C 725.335938 243 723.066406 245.265625 723.066406 248.0625 L 723.066406 275.882812 C 723.066406 278.679688 725.335938 280.945312 728.132812 280.945312 Z M 733.203125 253.125 L 750.914062 253.125 L 750.914062 270.820312 L 733.203125 270.820312 Z M 773.554688 303.660156 C 773.554688 300.867188 775.824219 298.597656 778.621094 298.597656 L 876.644531 298.597656 C 879.441406 298.597656 881.710938 300.867188 881.710938 303.660156 C 881.710938 306.457031 879.441406 308.722656 876.644531 308.722656 L 778.621094 308.722656 C 775.824219 308.722656 773.554688 306.457031 773.554688 303.660156 Z M 773.554688 324.859375 C 773.554688 322.0625 775.824219 319.796875 778.621094 319.796875 L 827.632812 319.796875 C 830.429688 319.796875 832.699219 322.0625 832.699219 324.859375 C 832.699219 327.652344 830.429688 329.921875 827.632812 329.921875 L 778.621094 329.921875 C 775.824219 329.921875 773.554688 327.652344 773.554688 324.859375 Z M 728.132812 333.234375 L 755.980469 333.234375 C 758.777344 333.234375 761.046875 330.964844 761.046875 328.171875 L 761.046875 300.347656 C 761.046875 297.554688 758.777344 295.285156 755.980469 295.285156 L 728.132812 295.285156 C 725.335938 295.285156 723.066406 297.554688 723.066406 300.347656 L 723.066406 328.171875 C 723.066406 330.96875 725.335938 333.234375 728.132812 333.234375 Z M 733.203125 305.410156 L 750.914062 305.410156 L 750.914062 323.109375 L 733.203125 323.109375 Z M 773.554688 355.949219 C 773.554688 353.152344 775.824219 350.886719 778.621094 350.886719 L 876.644531 350.886719 C 879.441406 350.886719 881.710938 353.152344 881.710938 355.949219 C 881.710938 358.742188 879.441406 361.011719 876.644531 361.011719 L 778.621094 361.011719 C 775.824219 361.011719 773.554688 358.746094 773.554688 355.949219 Z M 596.203125 441.292969 L 562.496094 441.292969 C 559.699219 441.292969 557.429688 443.558594 557.429688 446.355469 L 557.429688 561.9375 C 557.429688 564.734375 559.699219 567 562.496094 567 L 596.203125 567 C 599 567 601.269531 564.734375 601.269531 561.9375 L 601.269531 446.355469 C 601.269531 443.558594 599.003906 441.292969 596.203125 441.292969 Z M 591.136719 556.875 L 567.5625 556.875 L 567.5625 451.417969 L 591.136719 451.417969 Z M 878.378906 522.160156 L 842.554688 487.425781 C 840.449219 485.382812 837.664062 484.292969 834.726562 484.328125 C 833.1875 484.351562 831.699219 484.695312 830.339844 485.3125 L 815.960938 471.375 C 822.519531 460.699219 826.300781 448.152344 826.300781 434.738281 C 826.300781 413.859375 817.136719 395.082031 802.613281 382.207031 L 827.632812 382.207031 C 830.429688 382.207031 832.699219 379.9375 832.699219 377.144531 C 832.699219 374.347656 830.429688 372.082031 827.632812 372.082031 L 787.753906 372.082031 C 779.628906 367.953125 770.601562 365.359375 761.046875 364.675781 L 761.046875 352.632812 C 761.046875 349.839844 758.78125 347.570312 755.980469 347.570312 L 728.136719 347.570312 C 725.335938 347.570312 723.066406 349.839844 723.066406 352.632812 L 723.066406 372.691406 C 700.851562 384.507812 685.691406 407.886719 685.691406 434.738281 C 685.691406 443.027344 687.140625 450.988281 689.792969 458.378906 L 682.210938 458.378906 C 679.410156 458.378906 677.144531 460.644531 677.144531 463.441406 L 677.144531 561.9375 C 677.144531 564.734375 679.410156 567 682.210938 567 L 715.917969 567 C 718.714844 567 720.984375 564.734375 720.984375 561.9375 L 720.984375 495.636719 C 726.355469 498.734375 732.175781 501.136719 738.316406 502.734375 L 738.316406 561.9375 C 738.316406 564.734375 740.585938 567 743.382812 567 L 777.089844 567 C 779.886719 567 782.15625 564.734375 782.15625 561.9375 L 782.15625 499.9375 C 787.855469 497.648438 793.1875 494.636719 798.035156 491.011719 L 811.820312 504.378906 C 811.246094 505.757812 810.945312 507.25 810.96875 508.792969 C 811.015625 511.734375 812.195312 514.476562 814.300781 516.515625 L 850.125 551.25 C 852.257812 553.316406 855.023438 554.34375 857.785156 554.34375 C 860.65625 554.34375 863.523438 553.230469 865.675781 551.015625 L 878.613281 537.695312 C 882.835938 533.347656 882.730469 526.378906 878.378906 522.160156 Z M 822.734375 492.050781 L 818.332031 496.582031 L 805.71875 484.355469 C 807.207031 482.863281 808.628906 481.304688 809.984375 479.6875 Z M 733.203125 357.699219 L 750.914062 357.699219 L 750.914062 364.679688 C 744.757812 365.121094 738.820312 366.355469 733.203125 368.285156 Z M 755.996094 374.621094 C 789.175781 374.621094 816.167969 401.589844 816.167969 434.738281 C 816.167969 467.890625 789.175781 494.859375 755.996094 494.859375 C 722.816406 494.859375 695.824219 467.890625 695.824219 434.738281 C 695.824219 401.589844 722.816406 374.621094 755.996094 374.621094 Z M 710.847656 556.875 L 687.277344 556.875 L 687.277344 468.503906 L 694.363281 468.503906 C 698.582031 476.164062 704.191406 482.957031 710.847656 488.542969 Z M 772.023438 556.875 L 748.449219 556.875 L 748.449219 504.578125 C 750.929688 504.84375 753.445312 504.984375 755.996094 504.984375 C 761.507812 504.984375 766.875 504.347656 772.023438 503.140625 Z M 871.339844 530.644531 L 858.40625 543.964844 C 858.082031 544.292969 857.511719 544.300781 857.183594 543.980469 L 821.355469 509.246094 C 821.148438 509.046875 821.105469 508.808594 821.101562 508.640625 C 821.097656 508.472656 821.136719 508.234375 821.335938 508.027344 L 834.273438 494.707031 C 834.472656 494.5 834.714844 494.457031 834.878906 494.453125 C 834.882812 494.453125 834.890625 494.453125 834.894531 494.453125 C 835.0625 494.453125 835.292969 494.496094 835.496094 494.691406 L 871.320312 529.425781 C 871.652344 529.746094 871.660156 530.316406 871.339844 530.644531 Z M 755.996094 486.605469 C 784.621094 486.605469 807.910156 463.339844 807.910156 434.738281 C 807.910156 406.140625 784.621094 382.871094 755.996094 382.871094 C 727.371094 382.871094 704.085938 406.140625 704.085938 434.738281 C 704.085938 463.339844 727.371094 486.605469 755.996094 486.605469 Z M 755.996094 392.996094 C 779.03125 392.996094 797.773438 411.722656 797.773438 434.738281 C 797.773438 457.757812 779.03125 476.480469 755.996094 476.480469 C 732.960938 476.480469 714.21875 457.757812 714.21875 434.738281 C 714.21875 411.722656 732.960938 392.996094 755.996094 392.996094 Z M 654.742188 411.738281 L 621.035156 411.738281 C 618.238281 411.738281 615.96875 414.003906 615.96875 416.800781 L 615.96875 561.9375 C 615.96875 564.734375 618.238281 567 621.035156 567 L 654.742188 567 C 657.539062 567 659.808594 564.734375 659.808594 561.9375 L 659.808594 416.800781 C 659.808594 414.003906 657.539062 411.738281 654.742188 411.738281 Z M 649.675781 556.875 L 626.101562 556.875 L 626.101562 421.863281 L 649.675781 421.863281 Z M 649.675781 556.875 " fill-opacity="1" fill-rule="nonzero"/></g></svg>