<svg xmlns="http://www.w3.org/2000/svg" xmlns:xlink="http://www.w3.org/1999/xlink" width="1920" zoomAndPan="magnify" viewBox="0 0 1440 809.999993" height="1080" preserveAspectRatio="xMidYMid meet" version="1.0"><defs><clipPath id="3a810108d1"><path d="M 106.039062 585.113281 L 155.535156 585.113281 L 155.535156 656 L 106.039062 656 Z M 106.039062 585.113281 " clip-rule="nonzero"/></clipPath></defs><rect x="-144" width="1728" fill="#ffffff" y="-80.999999" height="971.999992" fill-opacity="1"/><rect x="-144" width="1728" fill="#9370db" y="-80.999999" height="971.999992" fill-opacity="1"/><g clip-path="url(#3a810108d1)"><path fill="#9370db" d="M 130.648438 585.132812 C 144.238281 585.132812 155.257812 596.152344 155.257812 609.742188 C 155.257812 614.472656 153.921875 618.890625 151.609375 622.640625 C 148.835938 627.234375 146.0625 631.828125 143.289062 636.421875 C 139.910156 641.914062 137.179688 646.355469 133.800781 651.847656 C 130.824219 656.6875 130.621094 656.808594 127.628906 651.941406 C 124.265625 646.476562 121.441406 641.886719 118.082031 636.421875 C 115.3125 631.878906 112.546875 627.335938 109.78125 622.792969 C 107.410156 619.011719 106.039062 614.539062 106.039062 609.742188 C 106.039062 596.152344 117.054688 585.132812 130.648438 585.132812 Z M 130.648438 597.472656 C 136.738281 597.472656 141.679688 602.410156 141.679688 608.503906 C 141.679688 614.597656 136.742188 619.539062 130.648438 619.539062 C 124.554688 619.539062 119.613281 614.597656 119.613281 608.503906 C 119.613281 602.410156 124.554688 597.472656 130.648438 597.472656 Z M 130.648438 597.472656 " fill-opacity="1" fill-rule="evenodd"/></g><path fill="#000000" d="M 876.601562 243 L 563.398438 243 C 560.417969 243 558 245.414062 558 248.398438 L 558 324 C 558 326.984375 560.417969 329.398438 563.398438 329.398438 L 876.601562 329.398438 C 879.582031 329.398438 882 326.984375 882 324 L 882 248.398438 C 882 245.414062 879.582031 243 876.601562 243 Z M 696.996094 286.199219 L 568.800781 317.140625 L 568.800781 255.257812 Z M 608.777344 253.800781 L 831.21875 253.800781 L 720 280.648438 Z M 720 291.75 L 831.222656 318.601562 L 608.777344 318.601562 Z M 743.003906 286.199219 L 871.199219 255.257812 L 871.199219 317.140625 Z M 743.003906 286.199219 " fill-opacity="1" fill-rule="nonzero"/><path fill="#000000" d="M 563.398438 567 L 649.800781 567 C 652.78125 567 655.199219 564.585938 655.199219 561.601562 L 655.199219 345.601562 C 655.199219 342.613281 652.78125 340.199219 649.800781 340.199219 L 563.398438 340.199219 C 560.417969 340.199219 558 342.613281 558 345.601562 L 558 561.601562 C 558 564.585938 560.417969 567 563.398438 567 Z M 644.398438 495.527344 L 612.636719 432 L 644.398438 368.472656 Z M 641.0625 513 L 572.136719 513 L 606.601562 444.074219 Z M 606.601562 419.925781 L 572.136719 351 L 641.0625 351 Z M 600.5625 432 L 568.800781 495.527344 L 568.800781 368.472656 Z M 644.398438 556.199219 L 568.800781 556.199219 L 568.800781 523.800781 L 644.398438 523.800781 Z M 644.398438 556.199219 " fill-opacity="1" fill-rule="nonzero"/><path fill="#000000" d="M 579.601562 534.601562 L 590.398438 534.601562 L 590.398438 545.398438 L 579.601562 545.398438 Z M 579.601562 534.601562 " fill-opacity="1" fill-rule="nonzero"/><path fill="#000000" d="M 601.199219 534.601562 L 612 534.601562 L 612 545.398438 L 601.199219 545.398438 Z M 601.199219 534.601562 " fill-opacity="1" fill-rule="nonzero"/><path fill="#000000" d="M 622.800781 534.601562 L 633.601562 534.601562 L 633.601562 545.398438 L 622.800781 545.398438 Z M 622.800781 534.601562 " fill-opacity="1" fill-rule="nonzero"/><path fill="#000000" d="M 676.800781 464.398438 L 763.199219 464.398438 C 766.179688 464.398438 768.601562 461.984375 768.601562 459 L 768.601562 345.601562 C 768.601562 342.613281 766.179688 340.199219 763.199219 340.199219 L 676.800781 340.199219 C 673.820312 340.199219 671.398438 342.613281 671.398438 345.601562 L 671.398438 459 C 671.398438 461.984375 673.820312 464.398438 676.800781 464.398438 Z M 757.800781 404.453125 L 728.5625 380.699219 L 757.800781 356.945312 Z M 747.988281 410.398438 L 692.011719 410.398438 L 720 387.660156 Z M 720 373.738281 L 692.011719 351 L 747.992188 351 Z M 711.4375 380.699219 L 682.199219 404.453125 L 682.199219 356.945312 Z M 757.800781 453.601562 L 682.199219 453.601562 L 682.199219 421.199219 L 757.800781 421.199219 Z M 757.800781 453.601562 " fill-opacity="1" fill-rule="nonzero"/><path fill="#000000" d="M 693 432 L 703.800781 432 L 703.800781 442.800781 L 693 442.800781 Z M 693 432 " fill-opacity="1" fill-rule="nonzero"/><path fill="#000000" d="M 714.601562 432 L 725.398438 432 L 725.398438 442.800781 L 714.601562 442.800781 Z M 714.601562 432 " fill-opacity="1" fill-rule="nonzero"/><path fill="#000000" d="M 736.199219 432 L 747 432 L 747 442.800781 L 736.199219 442.800781 Z M 736.199219 432 " fill-opacity="1" fill-rule="nonzero"/><path fill="#000000" d="M 876.601562 340.199219 L 784.800781 340.199219 C 781.820312 340.199219 779.398438 342.613281 779.398438 345.601562 L 779.398438 415.800781 C 779.398438 418.785156 781.820312 421.199219 784.800781 421.199219 L 876.601562 421.199219 C 879.582031 421.199219 882 418.785156 882 415.800781 L 882 345.601562 C 882 342.613281 879.582031 340.199219 876.601562 340.199219 Z M 871.199219 410.398438 L 790.199219 410.398438 L 790.199219 351 L 871.199219 351 Z M 871.199219 410.398438 " fill-opacity="1" fill-rule="nonzero"/><path fill="#000000" d="M 795.601562 432 L 865.800781 432 L 865.800781 442.800781 L 795.601562 442.800781 Z M 795.601562 432 " fill-opacity="1" fill-rule="nonzero"/><path fill="#000000" d="M 779.398438 453.601562 L 882 453.601562 L 882 464.398438 L 779.398438 464.398438 Z M 779.398438 453.601562 " fill-opacity="1" fill-rule="nonzero"/><path fill="#000000" d="M 671.398438 540 C 671.398438 542.984375 673.820312 545.398438 676.800781 545.398438 L 763.199219 545.398438 C 766.179688 545.398438 768.601562 542.984375 768.601562 540 L 768.601562 480.601562 C 768.601562 477.613281 766.179688 475.199219 763.199219 475.199219 L 676.800781 475.199219 C 673.820312 475.199219 671.398438 477.613281 671.398438 480.601562 Z M 682.199219 486 L 757.800781 486 L 757.800781 534.601562 L 682.199219 534.601562 Z M 682.199219 486 " fill-opacity="1" fill-rule="nonzero"/><path fill="#000000" d="M 671.398438 556.199219 L 768.601562 556.199219 L 768.601562 567 L 671.398438 567 Z M 671.398438 556.199219 " fill-opacity="1" fill-rule="nonzero"/><path fill="#000000" d="M 876.601562 475.199219 L 784.800781 475.199219 C 781.820312 475.199219 779.398438 477.613281 779.398438 480.601562 L 779.398438 561.601562 C 779.398438 564.585938 781.820312 567 784.800781 567 L 876.601562 567 C 879.582031 567 882 564.585938 882 561.601562 L 882 480.601562 C 882 477.613281 879.582031 475.199219 876.601562 475.199219 Z M 822.535156 521.101562 L 790.199219 549.632812 L 790.199219 492.566406 Z M 799.082031 486 L 862.316406 486 L 830.699219 513.894531 Z M 830.699219 528.304688 L 862.316406 556.199219 L 799.082031 556.199219 Z M 838.863281 521.101562 L 871.199219 492.566406 L 871.199219 549.632812 Z M 838.863281 521.101562 " fill-opacity="1" fill-rule="nonzero"/></svg>