<svg xmlns="http://www.w3.org/2000/svg" xmlns:xlink="http://www.w3.org/1999/xlink" width="1920" zoomAndPan="magnify" viewBox="0 0 1440 809.999993" height="1080" preserveAspectRatio="xMidYMid meet" version="1.0"><defs><clipPath id="639a790a8a"><path d="M 106.039062 585.113281 L 155.535156 585.113281 L 155.535156 656 L 106.039062 656 Z M 106.039062 585.113281 " clip-rule="nonzero"/></clipPath></defs><rect x="-144" width="1728" fill="#ffffff" y="-80.999999" height="971.999992" fill-opacity="1"/><rect x="-144" width="1728" fill="#9370db" y="-80.999999" height="971.999992" fill-opacity="1"/><g clip-path="url(#639a790a8a)"><path fill="#9370db" d="M 130.648438 585.132812 C 144.238281 585.132812 155.257812 596.152344 155.257812 609.742188 C 155.257812 614.472656 153.921875 618.890625 151.609375 622.640625 C 148.835938 627.234375 146.0625 631.828125 143.289062 636.421875 C 139.910156 641.914062 137.179688 646.355469 133.800781 651.847656 C 130.824219 656.6875 130.621094 656.808594 127.628906 651.941406 C 124.265625 646.476562 121.441406 641.886719 118.082031 636.421875 C 115.3125 631.878906 112.546875 627.335938 109.78125 622.792969 C 107.410156 619.011719 106.039062 614.539062 106.039062 609.742188 C 106.039062 596.152344 117.054688 585.132812 130.648438 585.132812 Z M 130.648438 597.472656 C 136.738281 597.472656 141.679688 602.410156 141.679688 608.503906 C 141.679688 614.597656 136.742188 619.539062 130.648438 619.539062 C 124.554688 619.539062 119.613281 614.597656 119.613281 608.503906 C 119.613281 602.410156 124.554688 597.472656 130.648438 597.472656 Z M 130.648438 597.472656 " fill-opacity="1" fill-rule="evenodd"/></g><path fill="#000000" d="M 590.398438 461.699219 C 585.9375 461.699219 582.300781 465.339844 582.300781 469.800781 L 582.300781 510.300781 C 582.300781 514.761719 585.9375 518.398438 590.398438 518.398438 C 594.859375 518.398438 598.5 514.761719 598.5 510.300781 L 598.5 469.800781 C 598.5 465.339844 594.859375 461.699219 590.398438 461.699219 " fill-opacity="1" fill-rule="nonzero"/><path fill="#000000" d="M 946.800781 542.699219 L 655.199219 542.699219 L 655.199219 486 C 655.199219 450.277344 626.121094 421.199219 590.398438 421.199219 C 554.675781 421.199219 525.601562 450.277344 525.601562 486 L 525.601562 542.699219 L 493.199219 542.699219 L 493.199219 324 L 541.800781 324 C 546.261719 324 549.898438 320.363281 549.898438 315.898438 L 549.898438 267.300781 L 865.800781 267.300781 L 865.800781 380.699219 C 865.800781 380.828125 865.863281 380.921875 865.863281 381.015625 C 865.894531 381.964844 866.054688 382.882812 866.433594 383.769531 C 866.433594 383.800781 866.433594 383.832031 866.464844 383.863281 C 866.464844 383.894531 866.464844 383.894531 866.464844 383.894531 L 890.765625 440.59375 C 892.03125 443.570312 894.972656 445.5 898.199219 445.5 C 901.425781 445.5 904.371094 443.570312 905.636719 440.59375 L 929.933594 383.894531 C 929.933594 383.894531 929.933594 383.894531 929.933594 383.863281 C 929.96875 383.832031 929.96875 383.800781 929.96875 383.769531 C 930.347656 382.882812 930.503906 381.964844 930.535156 381.015625 C 930.535156 380.921875 930.601562 380.828125 930.601562 380.699219 L 930.601562 267.300781 L 946.800781 267.300781 Z M 639 583.199219 C 639 610 617.199219 631.800781 590.398438 631.800781 C 563.601562 631.800781 541.800781 610 541.800781 583.199219 L 541.800781 486 C 541.800781 459.199219 563.601562 437.398438 590.398438 437.398438 C 617.199219 437.398438 639 459.199219 639 486 Z M 533.699219 278.753906 L 533.699219 307.800781 L 504.652344 307.800781 Z M 522.246094 267.300781 L 493.199219 296.347656 L 493.199219 267.300781 Z M 882 178.199219 L 914.398438 178.199219 L 914.398438 194.398438 L 882 194.398438 Z M 910.222656 388.800781 L 898.199219 416.832031 L 886.175781 388.800781 Z M 914.398438 372.601562 L 882 372.601562 L 882 210.601562 L 914.398438 210.601562 Z M 954.898438 251.101562 L 930.601562 251.101562 L 930.601562 170.101562 C 930.601562 165.640625 926.960938 162 922.5 162 L 873.898438 162 C 869.4375 162 865.800781 165.640625 865.800781 170.101562 L 865.800781 251.101562 L 485.101562 251.101562 C 480.636719 251.101562 477 254.738281 477 259.199219 L 477 550.800781 C 477 555.261719 480.636719 558.898438 485.101562 558.898438 L 525.601562 558.898438 L 525.601562 583.199219 C 525.601562 618.921875 554.675781 648 590.398438 648 C 626.121094 648 655.199219 618.921875 655.199219 583.199219 L 655.199219 558.898438 L 954.898438 558.898438 C 959.359375 558.898438 963 555.261719 963 550.800781 L 963 259.199219 C 963 254.738281 959.359375 251.101562 954.898438 251.101562 " fill-opacity="1" fill-rule="nonzero"/><path fill="#000000" d="M 922.5 510.300781 L 906.300781 510.300781 C 901.839844 510.300781 898.199219 513.9375 898.199219 518.398438 C 898.199219 522.859375 901.839844 526.5 906.300781 526.5 L 922.5 526.5 C 926.960938 526.5 930.601562 522.859375 930.601562 518.398438 C 930.601562 513.9375 926.960938 510.300781 922.5 510.300781 " fill-opacity="1" fill-rule="nonzero"/><path fill="#000000" d="M 873.898438 510.300781 L 857.699219 510.300781 C 853.238281 510.300781 849.601562 513.9375 849.601562 518.398438 C 849.601562 522.859375 853.238281 526.5 857.699219 526.5 L 873.898438 526.5 C 878.359375 526.5 882 522.859375 882 518.398438 C 882 513.9375 878.359375 510.300781 873.898438 510.300781 " fill-opacity="1" fill-rule="nonzero"/><path fill="#000000" d="M 807.265625 310.773438 C 804.417969 307.324219 799.324219 306.789062 795.875 309.636719 L 712.152344 378.136719 L 636.308594 309.886719 C 633.527344 307.355469 629.382812 307.105469 626.28125 309.222656 L 520.980469 382.125 C 517.308594 384.6875 516.390625 389.71875 518.921875 393.417969 C 520.503906 395.664062 523.035156 396.898438 525.601562 396.898438 C 527.214844 396.898438 528.796875 396.425781 530.21875 395.476562 L 630.234375 326.214844 L 706.488281 394.8125 C 709.464844 397.5 713.925781 397.597656 717.027344 395.066406 L 806.125 322.164062 C 809.574219 319.347656 810.113281 314.222656 807.265625 310.773438 " fill-opacity="1" fill-rule="nonzero"/><path fill="#000000" d="M 750.816406 477.898438 L 776.699219 436.484375 L 802.582031 477.898438 Z M 783.566406 416.898438 C 780.589844 412.183594 772.808594 412.183594 769.832031 416.898438 L 729.332031 481.695312 C 727.785156 484.195312 727.6875 487.359375 729.113281 489.921875 C 730.535156 492.484375 733.257812 494.101562 736.199219 494.101562 L 817.199219 494.101562 C 820.140625 494.101562 822.863281 492.484375 824.289062 489.921875 C 825.710938 487.359375 825.617188 484.195312 824.066406 481.695312 L 783.566406 416.898438 " fill-opacity="1" fill-rule="nonzero"/></svg>