<svg xmlns="http://www.w3.org/2000/svg" xmlns:xlink="http://www.w3.org/1999/xlink" width="1920" zoomAndPan="magnify" viewBox="0 0 1440 809.999993" height="1080" preserveAspectRatio="xMidYMid meet" version="1.0"><defs><clipPath id="f1d36c925b"><path d="M 106.039062 332.839844 L 328.035156 332.839844 L 328.035156 651 L 106.039062 651 Z M 106.039062 332.839844 " clip-rule="nonzero"/></clipPath></defs><rect x="-144" width="1728" fill="#ffffff" y="-80.999999" height="971.999992" fill-opacity="1"/><rect x="-144" width="1728" fill="#9370db" y="-80.999999" height="971.999992" fill-opacity="1"/><g clip-path="url(#f1d36c925b)"><path fill="#9370db" d="M 217.210938 332.949219 C 278.605469 332.949219 328.382812 382.722656 328.382812 444.121094 C 328.382812 465.484375 322.351562 485.433594 311.90625 502.375 C 299.378906 523.128906 286.847656 543.886719 274.320312 564.640625 C 259.058594 589.445312 246.714844 609.515625 231.457031 634.320312 C 218.003906 656.191406 217.09375 656.726562 203.570312 634.746094 C 188.390625 610.066406 175.628906 589.320312 160.445312 564.640625 C 147.945312 544.117188 135.449219 523.597656 122.949219 503.078125 C 112.238281 485.984375 106.039062 465.777344 106.039062 444.121094 C 106.039062 382.722656 155.8125 332.949219 217.210938 332.949219 Z M 217.210938 388.6875 C 244.734375 388.6875 267.046875 411 267.046875 438.523438 C 267.046875 466.050781 244.734375 488.363281 217.210938 488.363281 C 189.683594 488.363281 167.371094 466.050781 167.371094 438.523438 C 167.371094 411 189.683594 388.6875 217.210938 388.6875 Z M 217.210938 388.6875 " fill-opacity="1" fill-rule="evenodd"/></g><path fill="#000000" d="M 834.550781 290.449219 C 803.953125 259.851562 763.273438 243 720 243 C 676.726562 243 636.046875 259.851562 605.449219 290.449219 C 574.851562 321.046875 558 361.726562 558 405 C 558 448.273438 574.851562 488.953125 605.449219 519.550781 C 636.046875 550.148438 676.726562 567 720 567 C 763.273438 567 803.953125 550.148438 834.550781 519.550781 C 865.148438 488.953125 882 448.273438 882 405 C 882 361.726562 865.148438 321.046875 834.550781 290.449219 Z M 575.917969 405 C 575.917969 386.957031 579.261719 369.683594 585.34375 353.753906 L 643.617188 353.753906 C 641.003906 370.054688 639.636719 387.316406 639.636719 405 C 639.636719 422.089844 640.910156 438.789062 643.351562 454.605469 L 584.71875 454.605469 C 579.027344 439.132812 575.917969 422.421875 575.917969 405 Z M 657.554688 405 C 657.554688 387.203125 659 369.914062 661.761719 353.753906 L 711.039062 353.753906 L 711.039062 454.605469 L 661.484375 454.605469 C 658.902344 438.917969 657.554688 422.195312 657.554688 405 Z M 762.371094 300.570312 C 767.285156 311.101562 771.355469 322.984375 774.523438 335.835938 L 728.960938 335.835938 L 728.960938 262.578125 C 741.105469 267.03125 752.925781 280.332031 762.371094 300.570312 Z M 711.039062 262.578125 L 711.039062 335.835938 L 665.476562 335.835938 C 668.644531 322.984375 672.714844 311.101562 677.628906 300.570312 C 687.074219 280.332031 698.894531 267.03125 711.039062 262.578125 Z M 711.039062 472.523438 L 711.039062 547.421875 C 698.894531 542.96875 687.074219 529.667969 677.628906 509.429688 C 672.507812 498.449219 668.300781 486.003906 665.082031 472.523438 Z M 728.960938 547.421875 L 728.960938 472.523438 L 774.917969 472.523438 C 771.699219 486.003906 767.492188 498.449219 762.371094 509.429688 C 752.925781 529.667969 741.105469 542.96875 728.960938 547.421875 Z M 728.960938 454.605469 L 728.960938 353.753906 L 778.238281 353.753906 C 781 369.914062 782.445312 387.203125 782.445312 405 C 782.445312 422.195312 781.097656 438.917969 778.515625 454.605469 Z M 796.382812 353.753906 L 854.65625 353.753906 C 860.738281 369.683594 864.082031 386.957031 864.082031 405 C 864.082031 422.421875 860.972656 439.132812 855.28125 454.605469 L 796.648438 454.605469 C 799.089844 438.789062 800.363281 422.089844 800.363281 405 C 800.363281 387.316406 798.996094 370.054688 796.382812 353.753906 Z M 846.363281 335.835938 L 792.917969 335.835938 C 789.347656 320.1875 784.542969 305.71875 778.609375 292.996094 C 774.003906 283.128906 768.855469 274.625 763.28125 267.5625 C 798.933594 278.816406 828.640625 303.585938 846.363281 335.835938 Z M 676.71875 267.5625 C 671.144531 274.625 665.996094 283.128906 661.390625 292.996094 C 655.457031 305.71875 650.652344 320.1875 647.082031 335.835938 L 593.636719 335.835938 C 611.359375 303.585938 641.066406 278.816406 676.71875 267.5625 Z M 592.753906 472.523438 L 646.707031 472.523438 C 650.3125 488.804688 655.246094 503.835938 661.390625 517.003906 C 665.996094 526.871094 671.144531 535.375 676.71875 542.4375 C 640.464844 530.992188 610.363281 505.570312 592.753906 472.523438 Z M 763.28125 542.4375 C 768.855469 535.375 774.003906 526.871094 778.609375 517.003906 C 784.753906 503.835938 789.6875 488.804688 793.292969 472.523438 L 847.246094 472.523438 C 829.636719 505.570312 799.535156 530.992188 763.28125 542.4375 Z M 763.28125 542.4375 " fill-opacity="1" fill-rule="nonzero"/></svg>