<svg xmlns="http://www.w3.org/2000/svg" xmlns:xlink="http://www.w3.org/1999/xlink" width="1920" zoomAndPan="magnify" viewBox="0 0 1440 809.999993" height="1080" preserveAspectRatio="xMidYMid meet" version="1.0"><defs><clipPath id="461f6697d5"><path d="M 106.039062 332.839844 L 328.035156 332.839844 L 328.035156 651 L 106.039062 651 Z M 106.039062 332.839844 " clip-rule="nonzero"/></clipPath></defs><rect x="-144" width="1728" fill="#ffffff" y="-80.999999" height="971.999992" fill-opacity="1"/><rect x="-144" width="1728" fill="#9370db" y="-80.999999" height="971.999992" fill-opacity="1"/><path stroke-linecap="round" transform="matrix(16.199999, 0, 0, 16.199999, 525.59998, 210.600009)" fill="none" stroke-linejoin="round" d="M 8.999905 15.000097 L 12.000002 15.000097 M 8.999905 15.000097 C 7.343125 15.000097 6.00005 16.343172 6.00005 17.999952 C 6.00005 19.656974 7.343125 21.000049 8.999905 21.000049 C 10.656927 21.000049 12.000002 19.656974 12.000002 17.999952 L 12.000002 15.000097 M 8.999905 15.000097 C 7.343125 15.000097 6.00005 13.656781 6.00005 12 C 6.00005 10.343219 7.343125 8.999903 8.999905 8.999903 M 12.000002 15.000097 L 12.000002 12 M 8.999905 8.999903 L 12.000002 8.999903 M 8.999905 8.999903 C 7.343125 8.999903 6.00005 7.656829 6.00005 6.000048 C 6.00005 4.343267 7.343125 2.999951 8.999905 2.999951 L 12.000002 2.999951 M 12.000002 8.999903 L 12.000002 12 M 12.000002 8.999903 L 12.000002 2.999951 M 12.000002 8.999903 L 15.000098 8.999903 M 12.000002 12 C 12.000002 13.656781 13.343077 15.000097 15.000098 15.000097 C 16.656879 15.000097 17.999954 13.656781 17.999954 12 C 17.999954 10.343219 16.656879 8.999903 15.000098 8.999903 M 12.000002 12 C 12.000002 10.343219 13.343077 8.999903 15.000098 8.999903 M 12.000002 2.999951 L 15.000098 2.999951 C 16.656879 2.999951 17.999954 4.343267 17.999954 6.000048 C 17.999954 7.656829 16.656879 8.999903 15.000098 8.999903 " stroke="#000000" stroke-width="2" stroke-opacity="1" stroke-miterlimit="4"/><g clip-path="url(#461f6697d5)"><path fill="#9370db" d="M 217.210938 332.949219 C 278.605469 332.949219 328.382812 382.722656 328.382812 444.121094 C 328.382812 465.484375 322.351562 485.433594 311.90625 502.375 C 299.378906 523.128906 286.847656 543.886719 274.320312 564.640625 C 259.058594 589.445312 246.714844 609.515625 231.457031 634.320312 C 218.003906 656.191406 217.09375 656.726562 203.570312 634.746094 C 188.390625 610.066406 175.628906 589.320312 160.445312 564.640625 C 147.945312 544.117188 135.449219 523.597656 122.949219 503.078125 C 112.238281 485.984375 106.039062 465.777344 106.039062 444.121094 C 106.039062 382.722656 155.8125 332.949219 217.210938 332.949219 Z M 217.210938 388.6875 C 244.734375 388.6875 267.046875 411 267.046875 438.523438 C 267.046875 466.050781 244.734375 488.363281 217.210938 488.363281 C 189.683594 488.363281 167.371094 466.050781 167.371094 438.523438 C 167.371094 411 189.683594 388.6875 217.210938 388.6875 Z M 217.210938 388.6875 " fill-opacity="1" fill-rule="evenodd"/></g></svg>