<svg xmlns="http://www.w3.org/2000/svg" xmlns:xlink="http://www.w3.org/1999/xlink" width="1920" zoomAndPan="magnify" viewBox="0 0 1440 809.999993" height="1080" preserveAspectRatio="xMidYMid meet" version="1.0"><defs><clipPath id="c2fbcfeca0"><path d="M 106.039062 585.113281 L 155.535156 585.113281 L 155.535156 656 L 106.039062 656 Z M 106.039062 585.113281 " clip-rule="nonzero"/></clipPath><clipPath id="0596bd5756"><path d="M 494 243 L 946.070312 243 L 946.070312 567 L 494 567 Z M 494 243 " clip-rule="nonzero"/></clipPath></defs><rect x="-144" width="1728" fill="#ffffff" y="-80.999999" height="971.999992" fill-opacity="1"/><rect x="-144" width="1728" fill="#9370db" y="-80.999999" height="971.999992" fill-opacity="1"/><g clip-path="url(#c2fbcfeca0)"><path fill="#9370db" d="M 130.648438 585.132812 C 144.238281 585.132812 155.257812 596.152344 155.257812 609.742188 C 155.257812 614.472656 153.921875 618.890625 151.609375 622.640625 C 148.835938 627.234375 146.0625 631.828125 143.289062 636.421875 C 139.910156 641.914062 137.179688 646.355469 133.800781 651.847656 C 130.824219 656.6875 130.621094 656.808594 127.628906 651.941406 C 124.265625 646.476562 121.441406 641.886719 118.082031 636.421875 C 115.3125 631.878906 112.546875 627.335938 109.78125 622.792969 C 107.410156 619.011719 106.039062 614.539062 106.039062 609.742188 C 106.039062 596.152344 117.054688 585.132812 130.648438 585.132812 Z M 130.648438 597.472656 C 136.738281 597.472656 141.679688 602.410156 141.679688 608.503906 C 141.679688 614.597656 136.742188 619.539062 130.648438 619.539062 C 124.554688 619.539062 119.613281 614.597656 119.613281 608.503906 C 119.613281 602.410156 124.554688 597.472656 130.648438 597.472656 Z M 130.648438 597.472656 " fill-opacity="1" fill-rule="evenodd"/></g><path fill="#000000" d="M 766.957031 390.425781 C 766.566406 390.035156 766.140625 389.6875 765.679688 389.378906 C 765.222656 389.070312 764.738281 388.8125 764.226562 388.601562 C 763.71875 388.390625 763.191406 388.230469 762.648438 388.121094 C 762.109375 388.015625 761.5625 387.960938 761.007812 387.960938 C 760.457031 387.960938 759.910156 388.015625 759.367188 388.121094 C 758.828125 388.230469 758.300781 388.390625 757.789062 388.601562 C 757.28125 388.8125 756.796875 389.070312 756.335938 389.378906 C 755.875 389.683594 755.453125 390.035156 755.0625 390.425781 C 754.671875 390.816406 754.324219 391.238281 754.015625 391.699219 C 753.710938 392.160156 753.449219 392.644531 753.238281 393.152344 C 753.027344 393.664062 752.867188 394.191406 752.761719 394.734375 C 752.652344 395.273438 752.601562 395.820312 752.601562 396.375 C 752.601562 396.925781 752.65625 397.472656 752.761719 398.015625 C 752.871094 398.558594 753.03125 399.082031 753.242188 399.59375 C 753.453125 400.101562 753.714844 400.585938 754.023438 401.046875 C 754.328125 401.503906 754.679688 401.929688 755.070312 402.320312 L 791.789062 439.042969 L 755.070312 475.769531 C 754.667969 476.15625 754.308594 476.582031 753.992188 477.039062 C 753.671875 477.5 753.40625 477.984375 753.183594 478.5 C 752.964844 479.011719 752.796875 479.542969 752.683594 480.089844 C 752.566406 480.632812 752.507812 481.1875 752.503906 481.746094 C 752.496094 482.304688 752.546875 482.855469 752.652344 483.40625 C 752.757812 483.953125 752.917969 484.484375 753.128906 485 C 753.339844 485.519531 753.601562 486.007812 753.910156 486.472656 C 754.21875 486.9375 754.570312 487.367188 754.964844 487.761719 C 755.359375 488.160156 755.789062 488.511719 756.253906 488.820312 C 756.71875 489.128906 757.207031 489.390625 757.726562 489.601562 C 758.242188 489.8125 758.773438 489.96875 759.324219 490.074219 C 759.871094 490.179688 760.421875 490.230469 760.980469 490.226562 C 761.539062 490.222656 762.09375 490.160156 762.636719 490.046875 C 763.183594 489.929688 763.714844 489.765625 764.226562 489.542969 C 764.738281 489.324219 765.226562 489.054688 765.683594 488.738281 C 766.144531 488.421875 766.566406 488.0625 766.957031 487.660156 L 809.613281 444.96875 C 810.003906 444.578125 810.351562 444.152344 810.660156 443.695312 C 810.964844 443.234375 811.226562 442.75 811.4375 442.238281 C 811.648438 441.730469 811.808594 441.203125 811.914062 440.664062 C 812.023438 440.121094 812.074219 439.574219 812.074219 439.023438 C 812.074219 438.472656 812.023438 437.925781 811.914062 437.382812 C 811.808594 436.839844 811.648438 436.316406 811.4375 435.804688 C 811.226562 435.296875 810.964844 434.8125 810.660156 434.351562 C 810.351562 433.894531 810.003906 433.46875 809.613281 433.078125 Z M 766.957031 390.425781 " fill-opacity="1" fill-rule="nonzero"/><path fill="#000000" d="M 685.441406 390.425781 C 685.050781 390.035156 684.625 389.6875 684.167969 389.378906 C 683.710938 389.074219 683.226562 388.816406 682.714844 388.605469 C 682.203125 388.390625 681.679688 388.234375 681.136719 388.125 C 680.597656 388.019531 680.050781 387.964844 679.5 387.964844 C 678.945312 387.964844 678.398438 388.019531 677.859375 388.125 C 677.316406 388.234375 676.792969 388.390625 676.28125 388.605469 C 675.773438 388.816406 675.289062 389.074219 674.828125 389.378906 C 674.371094 389.6875 673.945312 390.035156 673.554688 390.425781 L 630.890625 433.101562 C 630.5 433.492188 630.152344 433.914062 629.84375 434.375 C 629.539062 434.832031 629.28125 435.316406 629.070312 435.828125 C 628.855469 436.339844 628.699219 436.863281 628.589844 437.40625 C 628.484375 437.945312 628.429688 438.492188 628.429688 439.046875 C 628.429688 439.597656 628.484375 440.144531 628.589844 440.683594 C 628.699219 441.226562 628.855469 441.753906 629.070312 442.261719 C 629.28125 442.773438 629.539062 443.257812 629.84375 443.714844 C 630.152344 444.175781 630.5 444.597656 630.890625 444.988281 L 673.554688 487.660156 C 673.949219 488.039062 674.375 488.375 674.832031 488.671875 C 675.289062 488.96875 675.773438 489.21875 676.28125 489.421875 C 676.785156 489.621094 677.308594 489.773438 677.84375 489.875 C 678.382812 489.976562 678.921875 490.023438 679.46875 490.019531 C 680.015625 490.015625 680.554688 489.957031 681.089844 489.847656 C 681.625 489.738281 682.140625 489.574219 682.644531 489.363281 C 683.148438 489.152344 683.628906 488.894531 684.082031 488.59375 C 684.535156 488.289062 684.953125 487.941406 685.339844 487.554688 C 685.726562 487.171875 686.070312 486.75 686.375 486.296875 C 686.679688 485.84375 686.9375 485.367188 687.148438 484.863281 C 687.359375 484.359375 687.519531 483.839844 687.628906 483.304688 C 687.738281 482.769531 687.796875 482.230469 687.800781 481.683594 C 687.804688 481.136719 687.757812 480.597656 687.65625 480.058594 C 687.554688 479.523438 687.40625 479.003906 687.203125 478.496094 C 687 477.988281 686.75 477.503906 686.453125 477.046875 C 686.160156 476.589844 685.820312 476.164062 685.441406 475.769531 L 648.722656 439.042969 L 685.441406 402.320312 C 685.832031 401.929688 686.179688 401.503906 686.488281 401.046875 C 686.792969 400.585938 687.054688 400.101562 687.265625 399.59375 C 687.476562 399.082031 687.636719 398.554688 687.746094 398.015625 C 687.851562 397.472656 687.90625 396.925781 687.90625 396.375 C 687.90625 395.820312 687.851562 395.273438 687.746094 394.730469 C 687.636719 394.191406 687.476562 393.664062 687.265625 393.152344 C 687.054688 392.644531 686.792969 392.160156 686.488281 391.699219 C 686.179688 391.242188 685.832031 390.816406 685.441406 390.425781 Z M 685.441406 390.425781 " fill-opacity="1" fill-rule="nonzero"/><path fill="#000000" d="M 739.613281 369.410156 C 739.078125 369.261719 738.539062 369.167969 737.984375 369.128906 C 737.433594 369.085938 736.882812 369.101562 736.335938 369.167969 C 735.785156 369.238281 735.25 369.359375 734.726562 369.53125 C 734.199219 369.707031 733.699219 369.929688 733.21875 370.203125 C 732.734375 370.476562 732.285156 370.792969 731.867188 371.15625 C 731.449219 371.515625 731.070312 371.914062 730.730469 372.351562 C 730.394531 372.789062 730.097656 373.253906 729.851562 373.75 C 729.605469 374.242188 729.40625 374.757812 729.261719 375.289062 L 695.074219 498.308594 C 694.917969 498.84375 694.816406 499.390625 694.765625 499.945312 C 694.71875 500.5 694.726562 501.054688 694.789062 501.609375 C 694.847656 502.164062 694.964844 502.707031 695.136719 503.238281 C 695.304688 503.769531 695.523438 504.277344 695.796875 504.765625 C 696.066406 505.25 696.382812 505.707031 696.746094 506.132812 C 697.105469 506.554688 697.507812 506.941406 697.945312 507.285156 C 698.382812 507.628906 698.851562 507.925781 699.347656 508.179688 C 699.84375 508.429688 700.363281 508.632812 700.898438 508.78125 C 701.4375 508.929688 701.984375 509.023438 702.539062 509.0625 C 703.097656 509.101562 703.648438 509.085938 704.203125 509.015625 C 704.757812 508.945312 705.296875 508.824219 705.824219 508.644531 C 706.351562 508.464844 706.859375 508.238281 707.339844 507.960938 C 707.824219 507.679688 708.273438 507.359375 708.695312 506.988281 C 709.113281 506.621094 709.492188 506.214844 709.828125 505.773438 C 710.164062 505.328125 710.457031 504.855469 710.699219 504.355469 C 710.945312 503.855469 711.136719 503.332031 711.277344 502.792969 L 745.464844 379.78125 C 745.613281 379.25 745.707031 378.707031 745.75 378.15625 C 745.792969 377.601562 745.78125 377.054688 745.714844 376.503906 C 745.648438 375.953125 745.527344 375.417969 745.355469 374.890625 C 745.183594 374.367188 744.960938 373.863281 744.6875 373.382812 C 744.417969 372.898438 744.101562 372.449219 743.742188 372.03125 C 743.378906 371.609375 742.980469 371.230469 742.546875 370.890625 C 742.109375 370.550781 741.644531 370.253906 741.152344 370.003906 C 740.660156 369.757812 740.144531 369.558594 739.613281 369.410156 Z M 739.613281 369.410156 " fill-opacity="1" fill-rule="nonzero"/><g clip-path="url(#0596bd5756)"><path fill="#000000" d="M 910.289062 243.027344 L 530.222656 243.027344 C 529.042969 243.03125 527.867188 243.09375 526.695312 243.214844 C 525.519531 243.335938 524.355469 243.511719 523.203125 243.746094 C 522.046875 243.980469 520.90625 244.269531 519.777344 244.613281 C 518.652344 244.960938 517.542969 245.359375 516.457031 245.816406 C 515.367188 246.269531 514.304688 246.777344 513.265625 247.335938 C 512.230469 247.894531 511.222656 248.503906 510.242188 249.160156 C 509.265625 249.820312 508.320312 250.523438 507.410156 251.273438 C 506.5 252.023438 505.632812 252.816406 504.800781 253.652344 C 503.96875 254.488281 503.179688 255.363281 502.433594 256.277344 C 501.6875 257.191406 500.988281 258.136719 500.335938 259.121094 C 499.683594 260.101562 499.078125 261.113281 498.527344 262.152344 C 497.972656 263.195312 497.472656 264.261719 497.023438 265.351562 C 496.574219 266.441406 496.179688 267.550781 495.839844 268.679688 C 495.5 269.808594 495.214844 270.953125 494.984375 272.109375 C 494.757812 273.265625 494.585938 274.429688 494.472656 275.605469 C 494.359375 276.777344 494.300781 277.953125 494.304688 279.132812 L 494.304688 531.039062 C 494.304688 532.21875 494.363281 533.390625 494.480469 534.5625 C 494.597656 535.730469 494.769531 536.894531 495 538.046875 C 495.230469 539.199219 495.515625 540.339844 495.859375 541.464844 C 496.199219 542.589844 496.597656 543.699219 497.046875 544.785156 C 497.496094 545.871094 498 546.933594 498.554688 547.96875 C 499.109375 549.007812 499.714844 550.015625 500.367188 550.992188 C 501.019531 551.972656 501.71875 552.914062 502.464844 553.824219 C 503.214844 554.734375 504 555.605469 504.832031 556.4375 C 505.664062 557.269531 506.535156 558.058594 507.445312 558.804688 C 508.351562 559.550781 509.296875 560.25 510.273438 560.902344 C 511.25 561.558594 512.257812 562.164062 513.296875 562.71875 C 514.332031 563.273438 515.394531 563.777344 516.480469 564.226562 C 517.566406 564.675781 518.671875 565.074219 519.796875 565.414062 C 520.921875 565.757812 522.0625 566.042969 523.214844 566.273438 C 524.371094 566.503906 525.53125 566.679688 526.703125 566.796875 C 527.871094 566.910156 529.046875 566.96875 530.222656 566.972656 L 910.289062 566.972656 C 911.464844 566.96875 912.636719 566.910156 913.808594 566.796875 C 914.980469 566.679688 916.140625 566.503906 917.292969 566.273438 C 918.449219 566.042969 919.585938 565.757812 920.710938 565.414062 C 921.835938 565.074219 922.941406 564.675781 924.027344 564.226562 C 925.117188 563.777344 926.175781 563.273438 927.214844 562.71875 C 928.25 562.164062 929.257812 561.558594 930.234375 560.902344 C 931.214844 560.25 932.15625 559.550781 933.066406 558.804688 C 933.976562 558.058594 934.84375 557.269531 935.675781 556.4375 C 936.507812 555.605469 937.296875 554.734375 938.042969 553.824219 C 938.789062 552.914062 939.488281 551.972656 940.144531 550.992188 C 940.796875 550.015625 941.402344 549.007812 941.957031 547.96875 C 942.511719 546.933594 943.011719 545.871094 943.464844 544.785156 C 943.914062 543.699219 944.308594 542.589844 944.652344 541.464844 C 944.996094 540.339844 945.28125 539.199219 945.511719 538.046875 C 945.742188 536.894531 945.914062 535.730469 946.03125 534.5625 C 946.148438 533.390625 946.207031 532.21875 946.207031 531.039062 L 946.207031 279.132812 C 946.207031 277.953125 946.152344 276.777344 946.039062 275.605469 C 945.925781 274.429688 945.753906 273.265625 945.523438 272.109375 C 945.296875 270.953125 945.011719 269.808594 944.671875 268.679688 C 944.332031 267.550781 943.9375 266.441406 943.488281 265.351562 C 943.039062 264.261719 942.539062 263.195312 941.984375 262.152344 C 941.429688 261.113281 940.828125 260.101562 940.175781 259.121094 C 939.519531 258.136719 938.820312 257.191406 938.078125 256.277344 C 937.332031 255.363281 936.542969 254.488281 935.710938 253.652344 C 934.878906 252.816406 934.007812 252.023438 933.097656 251.273438 C 932.191406 250.523438 931.246094 249.820312 930.269531 249.160156 C 929.289062 248.503906 928.28125 247.894531 927.242188 247.335938 C 926.207031 246.777344 925.140625 246.269531 924.054688 245.816406 C 922.964844 245.359375 921.859375 244.960938 920.730469 244.613281 C 919.605469 244.269531 918.464844 243.980469 917.308594 243.746094 C 916.152344 243.511719 914.988281 243.335938 913.816406 243.214844 C 912.644531 243.09375 911.46875 243.03125 910.289062 243.027344 Z M 511.117188 279.132812 C 511.113281 278.503906 511.144531 277.878906 511.203125 277.25 C 511.261719 276.625 511.351562 276.003906 511.472656 275.386719 C 511.59375 274.769531 511.742188 274.160156 511.921875 273.558594 C 512.101562 272.957031 512.3125 272.363281 512.550781 271.78125 C 512.789062 271.199219 513.054688 270.632812 513.347656 270.078125 C 513.640625 269.519531 513.960938 268.980469 514.308594 268.457031 C 514.65625 267.933594 515.027344 267.425781 515.421875 266.9375 C 515.820312 266.453125 516.238281 265.984375 516.679688 265.539062 C 517.125 265.089844 517.585938 264.667969 518.070312 264.265625 C 518.554688 263.863281 519.058594 263.488281 519.578125 263.136719 C 520.097656 262.785156 520.636719 262.460938 521.1875 262.160156 C 521.742188 261.859375 522.308594 261.589844 522.886719 261.347656 C 523.464844 261.101562 524.054688 260.886719 524.65625 260.703125 C 525.257812 260.515625 525.863281 260.359375 526.480469 260.234375 C 527.09375 260.109375 527.714844 260.011719 528.339844 259.949219 C 528.964844 259.882812 529.59375 259.847656 530.222656 259.84375 L 910.289062 259.84375 C 910.917969 259.847656 911.542969 259.882812 912.167969 259.949219 C 912.792969 260.011719 913.414062 260.109375 914.03125 260.234375 C 914.644531 260.359375 915.253906 260.515625 915.855469 260.703125 C 916.453125 260.886719 917.042969 261.101562 917.625 261.347656 C 918.203125 261.589844 918.769531 261.859375 919.320312 262.160156 C 919.875 262.460938 920.410156 262.785156 920.933594 263.136719 C 921.453125 263.488281 921.957031 263.863281 922.4375 264.265625 C 922.921875 264.667969 923.386719 265.089844 923.828125 265.539062 C 924.269531 265.984375 924.691406 266.453125 925.085938 266.9375 C 925.484375 267.425781 925.855469 267.933594 926.203125 268.457031 C 926.546875 268.980469 926.867188 269.519531 927.164062 270.078125 C 927.457031 270.632812 927.722656 271.199219 927.960938 271.78125 C 928.199219 272.363281 928.410156 272.957031 928.589844 273.558594 C 928.769531 274.160156 928.917969 274.769531 929.039062 275.386719 C 929.160156 276.003906 929.25 276.625 929.308594 277.25 C 929.367188 277.878906 929.394531 278.503906 929.394531 279.132812 L 929.394531 323.648438 L 511.117188 323.648438 Z M 910.289062 550.183594 L 530.222656 550.183594 C 529.597656 550.183594 528.972656 550.152344 528.347656 550.089844 C 527.726562 550.027344 527.109375 549.933594 526.496094 549.8125 C 525.882812 549.691406 525.277344 549.539062 524.675781 549.355469 C 524.078125 549.171875 523.492188 548.960938 522.914062 548.722656 C 522.335938 548.480469 521.769531 548.214844 521.21875 547.917969 C 520.667969 547.625 520.132812 547.300781 519.609375 546.953125 C 519.089844 546.605469 518.589844 546.234375 518.105469 545.835938 C 517.621094 545.441406 517.160156 545.019531 516.714844 544.578125 C 516.273438 544.136719 515.855469 543.671875 515.457031 543.1875 C 515.0625 542.703125 514.6875 542.203125 514.339844 541.683594 C 513.992188 541.164062 513.671875 540.625 513.378906 540.074219 C 513.082031 539.523438 512.816406 538.957031 512.574219 538.378906 C 512.335938 537.800781 512.125 537.214844 511.941406 536.613281 C 511.761719 536.015625 511.609375 535.410156 511.488281 534.796875 C 511.363281 534.183594 511.273438 533.5625 511.210938 532.941406 C 511.148438 532.320312 511.117188 531.695312 511.117188 531.070312 L 511.117188 340.480469 L 929.394531 340.480469 L 929.394531 531.070312 C 929.394531 531.695312 929.363281 532.320312 929.300781 532.941406 C 929.238281 533.5625 929.144531 534.183594 929.023438 534.796875 C 928.902344 535.410156 928.75 536.015625 928.566406 536.613281 C 928.386719 537.214844 928.175781 537.800781 927.933594 538.378906 C 927.695312 538.957031 927.429688 539.523438 927.132812 540.074219 C 926.839844 540.625 926.515625 541.164062 926.167969 541.683594 C 925.820312 542.203125 925.449219 542.703125 925.050781 543.1875 C 924.65625 543.671875 924.234375 544.136719 923.792969 544.578125 C 923.351562 545.019531 922.886719 545.441406 922.40625 545.835938 C 921.921875 546.234375 921.417969 546.605469 920.898438 546.953125 C 920.378906 547.304688 919.84375 547.625 919.292969 547.917969 C 918.742188 548.214844 918.175781 548.480469 917.597656 548.722656 C 917.019531 548.960938 916.433594 549.171875 915.832031 549.355469 C 915.234375 549.539062 914.628906 549.691406 914.015625 549.8125 C 913.402344 549.933594 912.785156 550.027344 912.160156 550.089844 C 911.539062 550.152344 910.914062 550.183594 910.289062 550.183594 Z M 910.289062 550.183594 " fill-opacity="1" fill-rule="nonzero"/></g><path fill="#000000" d="M 548.582031 275.367188 C 548.042969 275.367188 547.507812 275.394531 546.976562 275.445312 C 546.441406 275.496094 545.910156 275.578125 545.386719 275.679688 C 544.859375 275.785156 544.339844 275.914062 543.828125 276.070312 C 543.3125 276.226562 542.808594 276.40625 542.3125 276.613281 C 541.816406 276.816406 541.332031 277.046875 540.859375 277.300781 C 540.386719 277.554688 539.925781 277.828125 539.480469 278.125 C 539.035156 278.425781 538.605469 278.742188 538.191406 279.085938 C 537.777344 279.425781 537.378906 279.785156 537 280.164062 C 536.621094 280.542969 536.261719 280.941406 535.921875 281.355469 C 535.578125 281.769531 535.261719 282.199219 534.960938 282.644531 C 534.664062 283.089844 534.390625 283.550781 534.136719 284.023438 C 533.882812 284.496094 533.652344 284.980469 533.449219 285.476562 C 533.242188 285.972656 533.0625 286.476562 532.90625 286.992188 C 532.75 287.503906 532.621094 288.023438 532.515625 288.550781 C 532.410156 289.074219 532.332031 289.605469 532.277344 290.140625 C 532.226562 290.675781 532.199219 291.210938 532.199219 291.746094 C 532.199219 292.28125 532.226562 292.816406 532.277344 293.351562 C 532.332031 293.886719 532.410156 294.414062 532.511719 294.941406 C 532.617188 295.46875 532.746094 295.988281 532.902344 296.5 C 533.058594 297.015625 533.238281 297.519531 533.445312 298.015625 C 533.648438 298.511719 533.878906 298.996094 534.128906 299.46875 C 534.382812 299.941406 534.660156 300.402344 534.957031 300.847656 C 535.253906 301.292969 535.574219 301.726562 535.914062 302.140625 C 536.253906 302.554688 536.613281 302.953125 536.992188 303.332031 C 537.371094 303.710938 537.765625 304.070312 538.183594 304.410156 C 538.597656 304.753906 539.027344 305.070312 539.472656 305.371094 C 539.917969 305.667969 540.378906 305.945312 540.851562 306.195312 C 541.324219 306.449219 541.808594 306.679688 542.304688 306.886719 C 542.796875 307.089844 543.300781 307.273438 543.816406 307.429688 C 544.328125 307.582031 544.847656 307.714844 545.375 307.820312 C 545.902344 307.925781 546.429688 308.003906 546.964844 308.054688 C 547.5 308.109375 548.035156 308.136719 548.570312 308.136719 C 549.105469 308.136719 549.640625 308.109375 550.175781 308.058594 C 550.707031 308.007812 551.238281 307.929688 551.765625 307.824219 C 552.292969 307.71875 552.8125 307.589844 553.324219 307.433594 C 553.835938 307.277344 554.34375 307.097656 554.839844 306.894531 C 555.332031 306.6875 555.816406 306.460938 556.292969 306.207031 C 556.765625 305.957031 557.222656 305.679688 557.671875 305.382812 C 558.117188 305.085938 558.546875 304.765625 558.960938 304.425781 C 559.378906 304.085938 559.773438 303.726562 560.152344 303.347656 C 560.535156 302.96875 560.894531 302.570312 561.234375 302.15625 C 561.574219 301.742188 561.894531 301.3125 562.191406 300.867188 C 562.492188 300.421875 562.765625 299.960938 563.019531 299.488281 C 563.273438 299.015625 563.503906 298.53125 563.710938 298.035156 C 563.914062 297.539062 564.097656 297.035156 564.253906 296.523438 C 564.410156 296.007812 564.539062 295.488281 564.644531 294.964844 C 564.75 294.4375 564.828125 293.90625 564.882812 293.375 C 564.933594 292.839844 564.960938 292.304688 564.960938 291.769531 C 564.960938 291.230469 564.9375 290.695312 564.882812 290.160156 C 564.832031 289.628906 564.75 289.097656 564.648438 288.570312 C 564.542969 288.042969 564.414062 287.523438 564.257812 287.011719 C 564.101562 286.496094 563.921875 285.992188 563.714844 285.496094 C 563.511719 285 563.28125 284.515625 563.027344 284.042969 C 562.773438 283.566406 562.5 283.109375 562.203125 282.660156 C 561.902344 282.214844 561.585938 281.785156 561.246094 281.367188 C 560.902344 280.953125 560.542969 280.554688 560.164062 280.175781 C 559.785156 279.796875 559.390625 279.4375 558.972656 279.09375 C 558.558594 278.753906 558.128906 278.433594 557.683594 278.136719 C 557.238281 277.835938 556.777344 277.5625 556.304688 277.308594 C 555.832031 277.054688 555.347656 276.824219 554.851562 276.621094 C 554.355469 276.414062 553.851562 276.234375 553.335938 276.078125 C 552.824219 275.921875 552.304688 275.789062 551.777344 275.683594 C 551.25 275.578125 550.722656 275.5 550.1875 275.445312 C 549.652344 275.394531 549.117188 275.367188 548.582031 275.367188 Z M 548.148438 291.769531 C 548.160156 291.65625 548.210938 291.566406 548.292969 291.492188 C 548.375 291.417969 548.472656 291.378906 548.582031 291.378906 C 548.695312 291.378906 548.792969 291.417969 548.875 291.492188 C 548.957031 291.566406 549.003906 291.65625 549.019531 291.769531 C 549.019531 292.222656 548.148438 292.226562 548.148438 291.769531 Z M 548.148438 291.769531 " fill-opacity="1" fill-rule="nonzero"/><path fill="#000000" d="M 604.941406 275.367188 C 604.40625 275.367188 603.871094 275.390625 603.335938 275.445312 C 602.804688 275.496094 602.273438 275.574219 601.746094 275.679688 C 601.21875 275.785156 600.699219 275.914062 600.1875 276.070312 C 599.671875 276.222656 599.167969 276.402344 598.671875 276.609375 C 598.175781 276.8125 597.691406 277.042969 597.21875 277.296875 C 596.746094 277.546875 596.285156 277.824219 595.839844 278.121094 C 595.394531 278.417969 594.964844 278.738281 594.546875 279.078125 C 594.132812 279.417969 593.738281 279.777344 593.355469 280.15625 C 592.976562 280.535156 592.617188 280.933594 592.277344 281.347656 C 591.9375 281.761719 591.617188 282.191406 591.316406 282.636719 C 591.019531 283.085938 590.742188 283.542969 590.492188 284.015625 C 590.238281 284.488281 590.007812 284.972656 589.800781 285.46875 C 589.597656 285.964844 589.414062 286.46875 589.257812 286.984375 C 589.101562 287.496094 588.972656 288.015625 588.867188 288.542969 C 588.761719 289.070312 588.683594 289.597656 588.628906 290.132812 C 588.578125 290.667969 588.550781 291.203125 588.550781 291.738281 C 588.550781 292.273438 588.574219 292.808594 588.628906 293.34375 C 588.679688 293.878906 588.757812 294.410156 588.863281 294.933594 C 588.964844 295.460938 589.097656 295.980469 589.25 296.496094 C 589.40625 297.007812 589.585938 297.511719 589.792969 298.007812 C 589.996094 298.503906 590.226562 298.988281 590.476562 299.464844 C 590.730469 299.9375 591.003906 300.398438 591.304688 300.84375 C 591.601562 301.289062 591.917969 301.71875 592.261719 302.136719 C 592.601562 302.550781 592.960938 302.949219 593.339844 303.328125 C 593.71875 303.707031 594.113281 304.066406 594.527344 304.40625 C 594.941406 304.75 595.371094 305.070312 595.820312 305.367188 C 596.265625 305.664062 596.722656 305.941406 597.195312 306.195312 C 597.667969 306.449219 598.152344 306.679688 598.648438 306.882812 C 599.144531 307.089844 599.648438 307.269531 600.164062 307.425781 C 600.675781 307.582031 601.195312 307.714844 601.722656 307.820312 C 602.246094 307.925781 602.777344 308.003906 603.3125 308.054688 C 603.84375 308.109375 604.378906 308.136719 604.917969 308.136719 C 605.453125 308.136719 605.988281 308.109375 606.523438 308.058594 C 607.054688 308.007812 607.585938 307.929688 608.113281 307.824219 C 608.636719 307.71875 609.160156 307.589844 609.671875 307.433594 C 610.183594 307.28125 610.691406 307.101562 611.1875 306.894531 C 611.683594 306.691406 612.167969 306.460938 612.640625 306.207031 C 613.113281 305.957031 613.574219 305.679688 614.019531 305.382812 C 614.464844 305.085938 614.894531 304.765625 615.3125 304.425781 C 615.726562 304.085938 616.125 303.726562 616.503906 303.347656 C 616.882812 302.96875 617.242188 302.574219 617.585938 302.160156 C 617.925781 301.742188 618.246094 301.3125 618.542969 300.867188 C 618.839844 300.421875 619.117188 299.960938 619.371094 299.488281 C 619.625 299.015625 619.855469 298.53125 620.058594 298.035156 C 620.265625 297.542969 620.445312 297.035156 620.601562 296.523438 C 620.757812 296.011719 620.890625 295.492188 620.996094 294.964844 C 621.101562 294.4375 621.179688 293.90625 621.230469 293.375 C 621.285156 292.839844 621.3125 292.304688 621.3125 291.769531 C 621.3125 291.230469 621.285156 290.695312 621.234375 290.164062 C 621.179688 289.628906 621.101562 289.097656 621 288.570312 C 620.894531 288.046875 620.761719 287.527344 620.609375 287.011719 C 620.453125 286.5 620.273438 285.992188 620.066406 285.496094 C 619.863281 285.003906 619.632812 284.515625 619.378906 284.042969 C 619.128906 283.570312 618.851562 283.109375 618.554688 282.664062 C 618.257812 282.21875 617.9375 281.789062 617.597656 281.371094 C 617.257812 280.957031 616.898438 280.558594 616.519531 280.179688 C 616.140625 279.800781 615.742188 279.441406 615.328125 279.097656 C 614.914062 278.757812 614.484375 278.4375 614.039062 278.140625 C 613.59375 277.839844 613.132812 277.566406 612.660156 277.3125 C 612.1875 277.058594 611.703125 276.828125 611.210938 276.621094 C 610.714844 276.417969 610.210938 276.234375 609.695312 276.078125 C 609.183594 275.921875 608.664062 275.792969 608.136719 275.6875 C 607.613281 275.582031 607.082031 275.5 606.546875 275.449219 C 606.015625 275.394531 605.480469 275.367188 604.941406 275.367188 Z M 604.5 291.769531 C 604.511719 291.65625 604.558594 291.566406 604.644531 291.492188 C 604.726562 291.417969 604.824219 291.378906 604.933594 291.378906 C 605.046875 291.378906 605.140625 291.417969 605.226562 291.492188 C 605.308594 291.566406 605.355469 291.65625 605.367188 291.769531 C 605.375 292.226562 604.5 292.222656 604.5 291.769531 Z M 604.5 291.769531 " fill-opacity="1" fill-rule="nonzero"/></svg>